<!DOCTYPE svg PUBLIC "-//W3C//DTD SVG 1.1//EN" "http://www.w3.org/Graphics/SVG/1.1/DTD/svg11.dtd">
<svg xmlns="http://www.w3.org/2000/svg" viewBox="0 0 626 414">
<path fill="#846138" d="M48.25 25.629c-.963.414-1.25 7.874-1.25 32.454V90l39.75.178c21.863.097 42.675.298 46.25.446 3.575.148 9.099.293 12.275.322 5.615.053 5.792.138 6.381 3.086.412 2.057 2.012 4.042 4.975 6.17 2.403 1.725 4.362 3.398 4.354 3.718-.042 1.586-1.954 3.03-6.712 5.068-7.086 3.035-12.196 8.903-18.237 20.941L130.982 140H113.11l-.305 4.75-.305 4.75-11.75.282-11.75.281V147.5c0-1.409-.675-2.822-1.5-3.138-.858-.33-1.5-1.822-1.5-3.488 0-2.607-.262-2.846-2.5-2.285-2.648.665-3.787-1.956-1.25-2.875 1-.362 1-.876 0-2.57-2.327-3.942-1.616-6.14 2-6.177 3.271-.034 7.75-2.852 7.75-4.877 0-.6-.665-1.09-1.477-1.09s-2.226-1.143-3.142-2.541C84.967 114.774 74 110.355 74 113.068c0 .439 1.237.942 2.75 1.116l2.75.316v26l-15.75.275-15.75.276v-9.558c0-9.593 1.4-15.386 4.127-17.071.732-.453 5.84-1.112 11.352-1.466l10.021-.642-8.685-.157C48.794 111.868 47.697 113.27 47 134.95l-.5 15.55-9.911.288-9.911.288.659 33.712c.363 18.542.661 40.124.661 47.962L28 247l11.75.014 11.75.015 3 5.092c6.976 11.841 8.783 15.317 7.432 14.297a646.382 646.382 0 0 1-5.608-4.358c-2.297-1.802-4.672-3.111-5.278-2.909-2.003.668 4.629 9.539 10.372 13.875 4.229 3.193 5.582 4.836 5.582 6.778 0 2.44-.23 2.332-4.75-2.224C57.204 272.493 46.894 265 44.94 265c-.754 0-.55.978.574 2.75 3.321 5.235 6.945 8.322 13.451 11.461 4.221 2.036 5.915 3.291 4.785 3.544-.962.215-1.75.714-1.75 1.109 0 2.4 5.258 29.748 5.817 30.26.376.343 4.844.876 9.93 1.185 8.904.54 9.267.48 9.768-1.624 1.683-7.062 5.344-30.105 4.898-30.826-.292-.472-.085-.859.46-.859 1.269 0 5.527-5.933 4.789-6.672-.306-.306-2.155.432-4.109 1.639-1.954 1.208-3.553 1.879-3.553 1.492s-.648-.166-1.439.491c-1.759 1.459-.599-3.434 2.427-10.24 2.284-5.139 2.535-3.753.523 2.881-1.681 5.539-1.893 7.666-.535 5.345 1.271-2.173 4.273-15.69 3.799-17.11-.434-1.302-2.985 3.67-6.504 12.674l-2.344 6 .725-6.5c1.105-9.908.966-15.782-.408-17.156-.992-.992-1.244-.685-1.244 1.515 0 1.585.426 2.496 1 2.141.594-.367 1 .803 1 2.882 0 1.925-.515 3.818-1.145 4.208-.791.489-.987-.118-.634-1.965.281-1.47.086-2.935-.434-3.257-.588-.363-.675 3.803-.23 11.024L85.272 283H74.855l2.015-2.562c2.29-2.912 3.715-6.819 4.99-13.688.997-5.371-.1-6.368-1.762-1.601-1.341 3.847-1.352 4.126-.135 3.374 1.243-.768-1.505 8.419-2.95 9.864-.602.602-.401-.871.447-3.272 1.793-5.085 1.927-6.472.54-5.615-2.778 1.717-.894-8.184 2.522-13.257 1.938-2.877 3.952-6.358 4.476-7.737.945-2.487 1.041-2.505 12.727-2.407 22.346.189 28.595 1.02 29.331 3.901l.639 2.5.402-2.5c.39-2.419.688-2.509 9.153-2.789 5.313-.175 8.75.101 8.75.703 0 .546-1.971 6.301-4.381 12.789-8.423 22.682-10.107 33.841-6.045 40.047l1.472 2.25-6.273-.015c-8.31-.021-8.374-.093-9.199-10.453-1.495-18.785-6.724-39.885-10.215-41.224-2.428-.932-2.588.32-.556 4.345 7.464 14.778 11.384 51.454 9.29 86.91-.653 11.044-1.403 21.173-1.668 22.508-.448 2.26-.415 2.281.467.308 1.254-2.805 3.104-31.469 3.106-48.129L122 304h8.385c8.119 0 18.615 2.322 18.615 4.119 0 .449-5.062.959-11.25 1.134l-11.25.319 13.179.214c16.943.275 16.07-.672 15.038 16.302-.823 13.548-.064 41.58 1.148 42.328.36.223.311-4.167-.11-9.755-.706-9.373-.035-43.266.888-44.852.221-.38 2.304.173 4.63 1.228 6.372 2.893 8.727 2.622 8.727-1.003 0-5.918 2.857-9.892 7.412-10.31l4.088-.375-4.231-.174c-5.758-.238-6.475-3.011-2.748-10.628 2.677-5.473 2.772-5.547 7.096-5.547 4.982 0 4.963-.058 2.783 8.5-2.105 8.267-3.997 18.829-5.91 33-.89 6.6-2.49 14.86-3.555 18.355-2.277 7.479-2.434 9.044-.735 7.345 1.959-1.959 2.632-1.468 5.887 4.3 4.706 8.338 5.519 7.407 5.462-6.25-.046-10.962 4.296-31.738 6.229-29.805.255.255 2.806 5.729 5.668 12.166l5.205 11.704-1.373 7.95c-.755 4.373-1.213 8.431-1.017 9.018.196.588.971-2.274 1.723-6.358l1.368-7.425 1.247 4c.686 2.2 1.282 4.788 1.324 5.75.107 2.442 2.077 2.205 2.077-.25 0-2.605.363-2.55 6.669 1.009 5.715 3.225 6.162 2.915 3.831-2.663-.825-1.975-1.5-3.699-1.5-3.831 0-.132 3.712 1.265 8.25 3.105 12.52 5.078 13.827 4.56 16.695-6.62 1.884-7.345 2.301-7.809 3.151-3.5 1.968 9.979 1.39 12.111-4.096 15.097-5.632 3.065-6.539 5.403-2.097 5.403 4.494 0 22.292-3.795 23.51-5.013.726-.726 1.112-10.229 1.161-28.619.061-22.692.325-27.691 1.5-28.435 2.32-1.468 3.926-1.066 3.926.984 0 1.054.53 2.093 1.178 2.309 1.681.56 3.024 23.813 2.498 43.274l-.432 16 1.012-11.893c.658-7.745.685-17.858.076-29-.515-9.409-.773-17.444-.575-17.857.199-.413 7.893-.75 17.099-.75h16.739l-.423 6.648c-.544 8.537 1.734 47.052 2.943 49.777.711 1.602.809 1.277.427-1.425-4.887-34.614-1.575-86.192 6.87-106.975 2.782-6.848 2.703-8.344-.299-5.627-3.794 3.433-8.288 22.628-9.711 41.47l-.689 9.132h-4.356c-4.812 0-5.171-.443-2.636-3.245 7.637-8.438-7.852-58.662-19.709-63.91-1.468-.65-3.399-2.455-4.293-4.012-1.587-2.764-1.562-2.863 1.078-4.237 5.97-3.106 7.701-6.171 7.724-13.677.014-4.581-.37-6.919-1.135-6.919-.636 0-1.891-1.122-2.79-2.494-.899-1.371-1.963-2.395-2.365-2.275-.402.12-2.851-.386-5.441-1.125-6.341-1.809-10.672-.824-14.575 3.313-3.491 3.701-4.069 5.581-1.715 5.581 1.988 0 1.958 4.598-.055 8.459-1.436 2.753-1.409 3.065.389 4.5 1.063.847 2.459 2.57 3.103 3.827.662 1.291 2.463 2.544 4.138 2.879 3.935.787 4.417 1.843 1.961 4.299-1.283 1.283-2.036 3.348-2.036 5.584 0 2.34-1.181 5.394-3.466 8.967-1.907 2.98-4.579 7.613-5.938 10.296-1.36 2.683-3.664 5.659-5.121 6.613-2.782 1.823-4.677 1.378-2.672-.627 2.296-2.296-1.134-4.333-6.659-3.955-4.775.326-7.674 2.55-5.317 4.078.493.319 1.21 2.717 1.595 5.33l.701 4.75h-9.397l.522-6.5c.577-7.189.902-6.874-6.748-6.539-5.568.244-7.562 1.377-5.7 3.239.66.66 1.2 2.412 1.2 3.894 0 2.648-.072 2.678-4.25 1.764-9.372-2.049-22.667-11.106-23.011-15.677-.091-1.2-.689-2.181-1.329-2.181-.641 0-1.71-.656-2.376-1.459-1.475-1.777.493-2.368 9.466-2.845 4.803-.254 4.287-.356-2.583-.507-10.237-.225-10.06-.101-8.057-5.671 1.539-4.28 1.517-4.517-.689-7.5-2.851-3.856-1.578-8.757 3.548-13.653 1.804-1.724 3.281-3.806 3.281-4.627 0-.821.695-2.07 1.546-2.776.895-.743 1.264-1.951.876-2.872-.368-.875-.883-3.615-1.145-6.09-1.184-11.193-14.91-15.651-23.896-7.761-4.432 3.891-4.988 5.003-6.768 13.543-.812 3.894-2.164 8.348-3.005 9.899l-1.528 2.819-.123-3.5c-.555-15.836-2.697-47.813-2.779-41.5-.058 4.4.308 15.408.814 24.461.505 9.054.826 16.549.713 16.656-.548.52-22.106 2.315-22.544 1.878-.494-.495 5.537-52.315 6.488-55.745.398-1.433 1.641-1.75 6.855-1.75h6.369l.404 3.25.403 3.25.16-3.139c.138-2.709.609-3.223 3.444-3.755 3.588-.673 7.716-3.168 7.716-4.663 0-.556-5.842-.859-14.25-.737l-14.25.205 13.5.548 13.5.548-3.975 1.854C151.8 162.497 130 160.525 130 156.78c0-.494.446-.622.992-.285s1.783.17 2.75-.372c1.373-.77.949-.94-1.934-.778-6.349.355-5.515 2.597 1.933 5.196 3.007 1.05 3.719 1.777 3.56 3.636-.448 5.236-9.398 77.498-9.86 79.618-.469 2.147-.923 2.276-7.039 2l-6.538-.295.099-51.947c.054-28.571.221-52.071.372-52.221.15-.15 18.474-.335 40.719-.411 22.245-.075 41.346-.547 42.446-1.049 1.791-.818 1.754-.866-.357-.458-6.12 1.181-9.42-2.929-14.153-17.628-3.426-10.643-6.237-14.366-11.602-15.373-4.25-.797-4.263-1.709-.06-4.307C174.76 99.985 177 96.37 177 92.953c0-1.884.863-1.953 24.5-1.953H226V26l-84.25-.051c-46.338-.028-86.05-.232-88.25-.454-2.2-.222-4.562-.161-5.25.134M48 57.951v30.951l43.75.299c24.063.164 44.313.138 45-.058.965-.276 1.25-7.393 1.25-31.25V27H48v30.951m91.453-29.69c-.266.693-.364 14.756-.218 31.25L139.5 89.5l4.677.256c4.632.254 4.698.212 6.948-4.292 2.675-5.356 3.008-5.644 8.875-7.685 9.076-3.157 17.502-.42 15.497 5.034-.266.723.201 2.635 1.036 4.25L178.051 90H225V27h-42.531c-33.3 0-42.637.274-43.016 1.261m65.222 5.397c-.362.362-.255 1.149.238 1.75.492.601 1.051 2.217 1.241 3.592.264 1.908.938 2.5 2.846 2.5 1.911 0 2.579-.589 2.835-2.5.184-1.375.746-2.928 1.25-3.45.503-.522.915-1.31.915-1.75 0-.957-8.382-1.085-9.325-.142M61.322 35.229C60.87 35.928 60.275 40.55 60 45.5c-.466 8.395-.651 9.021-2.75 9.32-2.439.346-3.013 2.568-1 3.871 2.033 1.316 75.117 2.177 75.985.895C134.371 56.428 133.052 55 128 55h-5l-.032-8.75C122.927 34.797 122.311 34 113.5 34s-9.427.797-9.468 12.25L104 55h-6v-6.851C98 36.511 97.024 35 89.509 35 81.987 35 82 34.979 82 46.582 82 54.804 81.944 55 79.597 55c-2.344 0-2.413-.236-2.75-9.418-.191-5.181-.572-9.619-.847-9.864-1.423-1.266-13.907-1.681-14.678-.489m1.678.894c0 .482 2.588.841 5.75.798 6.448-.088 6.085-.529-1-1.215-2.612-.253-4.75-.066-4.75.417m46.728-.401c1.775.221 4.925.224 7 .008 2.074-.217.622-.397-3.228-.402-3.85-.004-5.548.173-3.772.394m97.461 2.086c.401 3.467 3.206 3.591 3.607.158.229-1.965-.177-2.569-1.811-2.692-1.728-.13-2.051.326-1.796 2.534M86.768 36.725c1.797.222 4.497.218 6-.01 1.503-.229.032-.411-3.268-.405-3.3.005-4.529.192-2.732.415m18.937.903c-.388.388-.705 4.474-.705 9.079v8.374l8.25-.291 8.25-.29v-17l-7.545-.288c-4.15-.159-7.862.029-8.25.416m56.545.118c5.912.177 15.588.177 21.5 0 5.912-.177 1.075-.321-10.75-.321s-16.662.144-10.75.321M61 46.544v8.544l7.25-.294 7.25-.294.29-8.25.291-8.25H61v8.544m22-.044V55h14v-5.375C97 38.524 96.656 38 89.375 38H83v8.5m-13.083-4.309c-.683 2.531-.327 4.809.75 4.809 1.547 0 1.812-3.586.333-4.5-.55-.34-1.037-.479-1.083-.309m43.311.848c-2.187.879-3.971 3.551-3.011 4.511 1.511 1.511 6.783-.957 6.783-3.175 0-2.581-.356-2.708-3.772-1.336m-46.545.611c-.997.998-.836 4.35.21 4.35 1.306 0 2.316-3.191 1.323-4.184-.467-.467-1.157-.542-1.533-.166m22.567.053c-2.066.766-1.498 4.297.691 4.297 1.068 0 2.246-.493 2.618-1.096.86-1.39-1.649-3.816-3.309-3.201m.219 1.347c-.95 1.538.351 2.53 1.635 1.246.718-.718.735-1.277.052-1.699-.56-.346-1.319-.142-1.687.453m72.781-.304c5.912.177 15.588.177 21.5 0 5.912-.177 1.075-.321-10.75-.321s-16.662.144-10.75.321m42.293 4.185c-.317.512-.144 1.197.383 1.523.527.326 1.261 2.607 1.63 5.069.577 3.853 1.001 4.477 3.038 4.477 2.444 0 4.174-3.485 3.083-6.207-.286-.711-.555-.041-.598 1.488-.043 1.53-.773 3.048-1.622 3.374-1.996.766-2.143.569-2.996-3.993l-.716-3.837 3.864.333c3.045.262 3.937-.038 4.202-1.413.372-1.936-9.11-2.688-10.268-.814M155 52.003c-1.375.377 6.5.494 17.5.26 11-.233 20.45-.59 21-.793 1.849-.682-35.971-.158-38.5.533M56 57c0 .55.423 1 .941 1s1.219-.45 1.559-1c.34-.55-.084-1-.941-1S56 56.45 56 57m23.813-.317c.721.289 1.584.253 1.916-.079.332-.332-.258-.568-1.312-.525-1.165.048-1.402.285-.604.604m18.382.063c5.882.176 15.782.177 22 .001s1.405-.32-10.695-.321c-12.1-.001-17.187.143-11.305.32m64.555 5c5.637.178 14.863.178 20.5 0 5.637-.178 1.025-.324-10.25-.324s-15.887.146-10.25.324m-92.5 2.961C69.563 66.188 69 70.909 69 75.199 69 81.467 68.705 83 67.5 83c-1.199 0-1.5-1.493-1.5-7.435C66 67.417 64.819 63 62.641 63c-.774 0-1.627 1.013-1.896 2.25a51.089 51.089 0 0 1-1.147 4.25c-.47 1.423-.313 1.34.542-.29 2.467-4.703 4.338-2.269 4.652 6.051.273 7.221.155 7.739-1.75 7.739C61.234 83 61 82.371 61 77.5c0-3.025-.375-5.5-.832-5.5-.458 0-.63 2.445-.382 5.433l.45 5.432-3.859.318c-2.703.222-3.958.835-4.188 2.044-.304 1.608 2.346 1.745 38.492 2 43.513.306 41.319.464 41.319-2.976v-2.534l-12 .702-12 .701v-6.438c0-16.709-6.757-17.995-7.185-1.367-.164 6.363-.22 6.556-.495 1.685-.43-7.623-2.231-13-4.355-13C93.873 64 93 67.737 93 76.695c0 6.111-.116 6.428-2.25 6.125-1.986-.283-2.279-.965-2.493-5.82-.478-10.815-1.223-14-3.273-14-2.169 0-2.85 2.733-3.238 13-.238 6.278-.34 6.511-2.996 6.816l-2.75.317v-7.246c0-11.48-2.948-17.213-5.75-11.18m133.659.462c-.552 1.032-.512 1.797.105 2.002.549.183 1.498 3.169 2.109 6.636 1.097 6.228 1.146 6.299 4.174 5.998 2.81-.28 3.16-.737 4.232-5.521.643-2.868 1.693-5.846 2.332-6.617 1.767-2.128-.476-3.403-6.71-3.814-4.216-.278-5.538.001-6.242 1.316M62 65c0 .55.477 1 1.059 1s.781-.45.441-1-.816-1-1.059-1-.441.45-.441 1m8.667 1.667C70.3 67.033 70 70.89 70 75.236c0 7.624.08 7.892 2.25 7.584 2.004-.285 2.283-.971 2.556-6.278.453-8.824-1.214-12.801-4.139-9.875m12.931.069c-.329.328-.598 4.122-.598 8.431 0 7.166.17 7.833 2 7.833 1.831 0 2-.667 2-7.893 0-7.457-1.247-10.526-3.402-8.371m11.652.962c-.847.318-1.25 2.882-1.25 7.955 0 7.191.089 7.474 2.25 7.167 2.042-.29 2.262-.897 2.379-6.545.13-6.303-1.101-9.43-3.379-8.577m7.167.657c-.286.746-.384 4.233-.218 7.75.265 5.628.541 6.395 2.301 6.395 2.393 0 3.56-11.518 1.428-14.087-1.48-1.782-2.84-1.805-3.511-.058m104.232-.596c-.258.417-.079 2.779.398 5.25.476 2.47.885 4.86.909 5.311.024.45 1.029.675 2.233.5 2.174-.318 5.466-8.952 4.196-11.006-.635-1.028-7.106-1.074-7.736-.055m91.448 1.99c-1.848 1.849-3.114 4.422-3.592 7.303-.405 2.446-1.107 5.154-1.559 6.016-.592 1.13.335 2.808 3.314 6 2.275 2.438 4.032 4.816 3.904 5.286-.884 3.238.969 4.629 4.047 3.037 2.929-1.515 3.043-1.502 2.315.258-.421 1.018-2.015 5.317-3.543 9.552-4.78 13.253-9.339 17.066-31.486 26.336a6938.38 6938.38 0 0 0-12.389 5.194c-1.123.478-1.24-.161-.604-3.32 1.576-7.833 1.536-7.911-4.004-7.911h-5l.348 5.75.347 5.75h-24.474l.613-5.173c.337-2.846 1.04-5.601 1.561-6.122 2.243-2.243-.138-3.705-6.033-3.705-4.64 0-6.065.366-6.573 1.69-.362.944-.128 1.864.531 2.083.713.238 1.18 2.537 1.18 5.81V139h-8.5c-4.675 0-8.5.363-8.5.808 0 .444 10.238.781 22.75.75l22.75-.058-.302 51.341c-.167 28.238.058 51.119.5 50.846.441-.273.961-22.027 1.154-48.342.194-26.315.568-48.07.832-48.345.263-.275 8.992-.648 19.397-.828l18.919-.328v-2.922c0-2.882-.079-2.923-5.75-2.996l-5.75-.075 6.5-2.28c8.885-3.116 18.224-7.951 22.339-11.564 4.349-3.819 4.661-3.777 4.661.621 0 4.9-4.073 11.719-14.257 23.872-19.173 22.878-19.206 23.724-1.625 41.976l9.694 10.066-1.444 3.435c-.795 1.889-2.552 4.887-3.906 6.662-2.638 3.458-3.271 7.361-1.194 7.361 1.916 0 8.858-4.987 8.269-5.94-.283-.459.241-1.447 1.166-2.197.971-.788 1.382-.865.973-.182-.39.649-.363 1.394.06 1.656.422.261.472 4.679.11 9.819-.362 5.139-.628 12.269-.59 15.844l.067 6.5.708-7.5c.389-4.125.766-10.901.838-15.059.171-9.852.824-10.583 10.209-11.411l7.578-.668 1.26 15.819c.694 8.7 1.446 16.007 1.673 16.236.715.724.448-3.674-2.084-34.417-4.504-54.692-4.637-50.448 1.59-50.485 2.63-.015 5.905-2.702 5.905-4.844 0-1.465-.553-1.462-4.654.021-4.266 1.543-4.717.939-2.771-3.716 3.531-8.452 1.213-36.706-3.934-47.949-2.434-5.318-2.455-5.527-.554-5.527 3.385 0 3.462-3.031.228-8.939-3.493-6.381-3.333-8.061.768-8.061 3.212 0 4.297-3.533 1.424-4.636-1.011-.387-1.299-1.346-.891-2.968.659-2.629-.507-3.06-3.682-1.361-1.196.641-2.601.691-3.684.132-.962-.497-4.574-1.212-8.024-1.588-5.987-.652-6.406-.553-9.129 2.17M154.652 70.75c-.256.412 5.23.633 12.191.49 23.354-.481 25.797-.847 6.966-1.044-10.28-.108-18.901.142-19.157.554m140.557 8.327c-1.592 4.914-1.712 6.177-.627 6.593.738.283 1.601 1.332 1.918 2.33 1.161 3.659 6.85 3.623 8.016-.051.34-1.072 1.248-1.949 2.016-1.949 1.439 0 3.468-2.956 3.468-5.051 0-.722-.974-.996-2.5-.704-1.582.302-2.5.021-2.5-.765 0-1.096-6.102-6.48-7.345-6.48-.263 0-1.364 2.735-2.446 6.077m-133.573-.571c-1.576.822-3.675 1.494-4.666 1.494-1.041 0-2.364 1.268-3.13 3-.731 1.65-1.668 3-2.084 3-.98 0-.949 3.147.045 4.712 1.239 1.95 4.656.412 6.041-2.717.819-1.85 1.795-2.688 2.718-2.334.792.304 2.227.211 3.19-.208.963-.418 2.542-.662 3.51-.542 2.007.249 6.09-2.774 6.543-4.844.414-1.892-1.841-3.117-3.803-2.067-.917.491-2.229.467-3.054-.054-1.888-1.195-1.96-1.187-5.31.56m137.177-.823c.721.289 1.584.253 1.916-.079.332-.332-.258-.568-1.312-.525-1.165.048-1.402.285-.604.604m8.11 3.567c-1.115 3.645-.485 4.669 1.077 1.75.726-1.356.737-2 .035-2-.569 0-1.069.112-1.112.25m-217.886 2.5c-24.088.193-34.776.618-35.5 1.411-.753.822-.534.956.795.486C55.339 85.291 73.028 85 93.641 85c24.73 0 37.267-.34 36.859-1-.34-.55-2.054-.894-3.809-.764-1.755.13-18.7.361-37.654.514m333.2.792c-1.648.693-3.302 1.755-3.676 2.359-.373.605-1.777 1.099-3.12 1.099-1.937 0-2.441.516-2.441 2.5 0 1.375-.459 2.5-1.02 2.5-1.006 0-.568 6.941.892 14.128.071.346 2.828 1.638 6.128 2.872 7.322 2.738 7.4 3.194.808 4.76-10.488 2.491-21.942 20.372-22.201 34.656-.098 5.446-2.607 9.993-2.607 4.726 0-1.113-.399-2.27-.886-2.572-1.007-.622-2.08 2.687-2.1 6.48-.015 2.782-1.653 4.95-3.74 4.95-1.045 0-.991-.647.256-3.058 1.945-3.761 5.482-17.322 5.438-20.852-.042-3.473-1.982-1.117-6.1 7.41l-2.897 6 .613-7.363c.337-4.05 1.216-8.807 1.953-10.572 1.543-3.693 3.96-20.402 3.078-21.283-.734-.735-5.095 9.016-6.107 13.66l-.751 3.442-1.455-2.777c-.8-1.527-1.815-6.226-2.255-10.442-.8-7.665-3.498-16.165-5.131-16.165-.978 0-.436 3.363 2.166 13.447.986 3.821 1.557 7.328 1.269 7.794-.288.466.201 1.952 1.086 3.303s1.233 2.456.773 2.456c-1.264 0-5.598-5-8.237-9.5l-2.345-4 2.398 2c1.319 1.1 3.188 2.9 4.153 4 .965 1.1 1.769 1.49 1.788.866.048-1.642-8.283-8.917-8.718-7.612-.709 2.127 4.044 9.8 8.853 14.292 3.44 3.213 5.029 5.558 5.422 8l.555 3.454-1.646-3.75c-.906-2.062-2.038-3.75-2.515-3.75-1.198 0-.067 5.677 2.091 10.5 1 2.233 2.036 7.645 2.345 12.25.554 8.243.552 8.25-1.9 8.25-2.397 0-2.454-.184-2.454-7.833 0-8.482-1.749-19.167-3.138-19.167-.877 0-1.45 8.853-1.1 17l.193 4.5-1.94-2.314c-1.366-1.63-1.768-3.172-1.359-5.215.708-3.539-.39-9.971-1.701-9.971-.525 0-.985 1.463-1.023 3.25-.067 3.228-.075 3.233-1.179.75-5.243-11.789-8.808-17.278-10.272-15.814-.502.501 3.674 12.366 5.654 16.067 2.228 4.162 1.744.722-.664-4.723-1.405-3.178-2.363-6.284-2.128-6.904.403-1.065 4.779 7.533 6.059 11.906.485 1.659.097 2.073-2.11 2.256-3.617.299-5.195 1.945-2.709 2.827 6.308 2.239 8.357 3.491 10.398 6.358l2.278 3.2-4.226-2.156c-2.325-1.186-4.472-1.911-4.772-1.611-.99.99 2.156 3.852 6.231 5.667 3.098 1.38 3.497 1.802 1.758 1.856-2.81.089-2.844-.585.801 15.801 2.871 12.905 3.865 15.217 6.555 15.255.638.009 1.379 2.947 1.75 6.931 1.018 10.959-.144 10.231 15.772 9.885 7.631-.165 13.875.002 13.874.372-.001.371-1.628 2.804-3.615 5.407l-3.612 4.732 1.734 7.594c.954 4.177 2.412 8.678 3.239 10.002l1.505 2.408 1.729-2.292c1.529-2.027 2.168-2.187 5.546-1.388 5.342 1.263 5.292 2.73-.142 4.183-2.798.749-5.801 2.484-7.564 4.372-2.825 3.024-2.944 3.057-3.49.97-.555-2.121-.925-2.161-19.949-2.161-10.66 0-19.383.265-19.383.589 0 .775 5.895 26.398 6.594 28.661.461 1.49-.137 1.75-4.027 1.75H367v-4.941c0-2.718.43-5.207.956-5.532 2.82-1.743-.446-3.527-6.456-3.527-6.423 0-8.877 1.625-6.608 4.377.509.618 1.072 3.148 1.251 5.623.29 4.012.083 4.535-1.909 4.82-1.229.175-2.234.963-2.234 1.75 0 1.196 3.52 1.43 21.5 1.43 16.544 0 21.495.288 21.48 1.25-.114 7.127-3.005 18.166-5.417 20.684-4.055 4.233-10.432 30.45-12.909 53.073-.443 4.047-1.203 4.661-8.521 6.884-7.085 2.152-9.845 4.148-8.576 6.202.733 1.185 14.035.681 19.245-.73 2.236-.606 2.287-.471 1.788 4.757l-.513 5.38 1.016-5.114c.77-3.876 1.596-5.379 3.411-6.206 1.623-.739 2.758-2.475 3.521-5.386 1.046-3.993 2.843-10.009 10.915-36.544 1.715-5.637 3.461-10.25 3.881-10.25.419 0 1.916 2.363 3.325 5.25l2.564 5.25-1.798 12.884c-.989 7.086-2.027 16.536-2.307 21l-.509 8.116.925-6.5c.508-3.575 1.679-12.568 2.602-19.985 1.135-9.123 1.974-13.004 2.592-12 .502.817 4.075 7.482 7.938 14.812 3.864 7.33 7.256 13.098 7.537 12.816.281-.281-1.778-4.572-4.576-9.536-7.509-13.321-17.3-34.179-16.735-35.652.271-.706 3.017-1.848 6.104-2.539 7.461-1.669 7.762-5.111.517-5.916l-4.5-.5 3.561-2.725c4.335-3.316 9.789-3.461 10.414-.275.592 3.016 6.351 55.7 6.34 58-.005 1.1.298 2.959.674 4.131.765 2.39-1.435 4.947-7.739 8.989-2.684 1.721-3.75 3.112-3.75 4.893 0 3.076 1.871 3.182 7.899.447 2.419-1.097 4.49-1.875 4.602-1.728.112.148.727 1.168 1.365 2.268 1.05 1.808 1.104 1.746.566-.645-.517-2.295.011-3.064 3.986-5.798 5.406-3.72 5.409-3.742 1.697-15.454-2.685-8.47-2.829-9.729-2.071-18.103.447-4.95.778-11.475.735-14.5-.045-3.15-.561-.159-1.208 7l-1.128 12.5-4.222-12.707c-2.321-6.989-4.221-13.177-4.221-13.75 0-1.562 10.992-1.355 11.03.207.017.694.484.471 1.05-.5.878-1.507 2.625-1.75 12.577-1.75 10.619 0 11.497.142 10.823 1.75-.403.962-.855 13.9-1.003 28.75l-.271 27 .857-26c1.148-34.873 1.595-38.091 5.233-37.706 1.528.161 5.35-.174 8.492-.744 6.803-1.236 9.212-3.616 9.212-9.103 0-4.878-6.373-26.074-9.568-31.823-1.338-2.407-2.432-5.889-2.432-7.737 0-4.774-8.586-10.328-11.55-7.471-2.857 2.754-7.297 1.596-10.423-2.72-3.238-4.471-6.973-6.569-10.461-5.878-1.586.315-1.44.441.628.546 1.482.075 3.913 1.185 5.403 2.466l2.709 2.33-4.24 1.697c-9.623 3.85-30.066 4.289-30.066.645 0-3.767 11.2-7.367 13.607-4.373 1.401 1.744 1.425 1.711.358-.481-.63-1.294-.939-3.14-.687-4.102.352-1.347-.188-1.768-2.348-1.829-3.938-.112-6.721-1.826-8.98-5.531-2.77-4.542-2.626-8.476.3-8.185 1.238.123 1.462.029.5-.208-2.173-.537-2.253-2.647-.179-4.722 1.845-1.844 1.931-1.857 4.193-.626.955.52 3.444 1.22 5.531 1.554 2.809.45 4.038 1.248 4.73 3.067.514 1.352 2.055 2.969 3.424 3.593 1.368.623 2.251 1.518 1.961 1.987-.291.47-.034.854.57.854 1.201 0 .107 1.59-3.795 5.519-2.264 2.279-2.277 2.403-.588 5.656 1.055 2.033 1.902 2.801 2.18 1.977.25-.742-.246-2.05-1.104-2.907-1.412-1.413-1.153-2.04 2.747-6.652 5.658-6.694 6.674-9.892 4.851-15.281-1.531-4.527-2.669-5.826-5.771-6.588-1.1-.271 2.746-.544 8.547-.608l10.547-.116 3.703 3.792c3.221 3.298 3.703 4.412 3.703 8.551 0 5.379 1.873 6.745 11.058 8.066 3.232.465 5.953 1.81 9.358 4.623 2.641 2.183 4.901 3.968 5.023 3.968 1.3 0 6.849-10.065 8.171-14.819 1.764-6.349 7.568-12.094 10.916-10.809.837.321 1.468-.315 1.662-1.677.281-1.977.982-2.224 7.069-2.491 6.581-.288 6.787-.223 7.863 2.5 2.065 5.221 2.225 11.105.428 15.809-2.637 6.906-1.4 7.596 3.877 2.161 3.827-3.94 4.952-4.606 6.131-3.628 1.813 1.505 1.836 1.804-.609-8.022-1.13-4.538-1.77-8.535-1.422-8.882.347-.347 15.201-.796 33.008-.997l32.378-.366.766-4.639c2.869-17.364-.17-37.063-6.67-43.248-3.167-3.012-4.136-4.965-5.871-11.827-3.43-13.564-11.437-22.19-24.32-26.199-7.572-2.357-9.816-3.592-9.816-5.401 0-1.928.993-1.857 2.479.175.914 1.25 1.637 1.395 3.045.607 1.287-.721 2.38-.7 3.612.07 2.945 1.839 7.355-.298 7.409-3.591.024-1.493.587-3.258 1.25-3.921 1.548-1.548 1.541-4.069-.016-5.626-.672-.672-1.234-2.224-1.25-3.45-.024-1.875-.585-2.229-3.529-2.229-2.778 0-3.951-.64-5.685-3.102-2.882-4.091-7.193-5.785-13.042-5.125-4.9.552-8.859 3.758-7.859 6.364.276.718.031 2.656-.544 4.305-1.472 4.223.47 9.453 4.711 12.688 1.881 1.434 3.419 2.891 3.419 3.239 0 .347-18.337.631-40.75.631-28.825 0-43.477.393-50.068 1.344-8.265 1.192-9.512 1.168-11.036-.212-.946-.856-3.39-2.254-5.433-3.107-4.533-1.895-4.668-3.674-.626-8.277 8.076-9.198-2.122-27.216-12.85-22.706M171 85c-.825.533-2.561.976-3.857.985-1.681.011-2.192.445-1.781 1.515.395 1.029-.061 1.5-1.452 1.5-1.116 0-1.75-.45-1.41-1 .959-1.551-2.107-1.178-3.431.417-.647.779-1.265 3.029-1.373 5C157.51 96.816 156 98.67 156 95.5c0-.825-.562-1.532-1.25-1.57-.687-.039-.35-.485.75-.992l2-.921-2 .255c-2.98.38-2.767 5.119.25 5.548 1.238.175 2.25.932 2.25 1.682 0 .75.9 1.649 2 1.998 2.276.722 2.397 1.326 1.002 4.995-.549 1.444-1.418 2.366-1.931 2.049-2.13-1.317-2.236 1.904-.119 3.618 3.018 2.444 6.592 2.326 8.416-.277 1.943-2.774 1.087-5.504-1.149-3.661-1.375 1.135-1.402 1.004-.239-1.176 1.03-1.934 1.044-2.54.065-2.866-.683-.228.567-1.224 2.779-2.214 5.16-2.311 7.396-5.715 6.991-10.642-.241-2.924-.727-3.793-2.065-3.687-.963.076-1.75-.261-1.75-.75s.45-.889 1-.889 1-.45 1-1c0-1.253-1.061-1.253-3 0m128.564 2.707c-.542 1.425-.428 1.54.56.56.684-.679.991-1.486.683-1.793-.308-.308-.867.247-1.243 1.233m-129.109 5.27c0 2.123.347 3.645.772 3.383.986-.61.976-4.492-.015-6.051-.418-.658-.757.537-.757 2.668M173 90.059c0 .582.45.781 1 .441s1-.816 1-1.059-.45-.441-1-.441-1 .477-1 1.059M163 91c0 .55.45 1 1 1s1-.45 1-1-.45-1-1-1-1 .45-1 1m380.004.724c-5.786.727-7.872 4.881-4.004 7.976 1.26 1.008 1.155 1.114-.654.659-2.825-.711-3.983 2.688-2.3 6.752 1.547 3.735 3.35 3.235 3.563-.988.089-1.775.432-3.497.761-3.827.828-.828.088 7.154-.796 8.584-.436.706.384 1.637 2.105 2.389 3.303 1.441 4.516 7.574 1.454 7.35-2.784-.203-2.245 6.794.554 7.192 3.435.489 5.608-3.663 4.786-9.146-.595-3.967-.435-4.542 1.428-5.134 1.155-.366 2.155-1.535 2.224-2.598.248-3.837.393-4.272 1.546-4.657.765-.255.971.378.593 1.823-.399 1.525-.219 1.991.578 1.498 2.413-1.491 1.331-4.692-1.481-4.385-2.194.239-2.829-.264-3.762-2.982-1.208-3.518-5.244-6.23-9.272-6.23-1.345 0-2.186-.419-1.87-.93.756-1.224 5.305-.708 6.782.769.639.639 1.971 1.161 2.961 1.161 1.133 0 1.8.741 1.8 2 0 1.1.45 2 1 2s1 .675 1 1.5c0 .933.944 1.5 2.5 1.5 3.528 0 3.399-4.536-.25-8.756-2.927-3.385-5.617-4.226-11.246-3.52m-115.169 1.008c-5.362.426-9.835 4.021-9.835 7.904 0 1.673-.567 2.364-1.941 2.364-1.068 0-2.231.47-2.586 1.044-.988 1.598 1.486 3.956 4.149 3.956 1.308 0 2.378.394 2.378.875s1.35 1.145 3 1.475c2.371.474 3 1.123 3 3.094 0 1.898-.391 2.343-1.636 1.865-2.503-.96-1.206 1.72 1.985 4.102 3.202 2.391 5.935 1.354 6.497-2.465.289-1.961.105-2.15-1.113-1.139-1.229 1.02-1.38.799-.959-1.405.275-1.438.012-2.916-.585-3.285-.657-.406.054-1.436 1.801-2.61 1.588-1.067 3.364-2.989 3.948-4.271 2.106-4.621.656-12.483-2.223-12.056-.668.099-3.314.347-5.88.552m3.723 2.175c-.309.498.34.671 1.441.383 2.335-.611 2.63-1.29.56-1.29-.793 0-1.693.408-2.001.907M171.45 98.081c-.372.601-1.767.805-3.143.46-1.592-.4-2.245-.25-1.832.419.945 1.528 4.092 1.266 5.525-.46.685-.825.991-1.5.681-1.5-.309 0-.864.486-1.231 1.081M422 97.969c0 .532.675.709 1.5.393.825-.317 1.5-.753 1.5-.969 0-.216-.675-.393-1.5-.393s-1.5.436-1.5.969M433 98c0 .55.45 1 1 1s1-.45 1-1-.45-1-1-1-1 .45-1 1m-2.39 2.5c.823 3.677 1.395 4.475 1.375 1.917-.009-1.055-.472-2.592-1.031-3.417-.741-1.095-.834-.691-.344 1.5m-122.39-.25c-.563.688-2.789 5.075-4.947 9.75-4.62 10.013-8 13.332-19.428 19.078-4.429 2.227-7.817 4.283-7.53 4.571.288.287 5.074-1.816 10.637-4.673 11.487-5.901 13.56-8.102 17.702-18.8 1.559-4.028 3.643-8.191 4.63-9.25.986-1.059 1.381-1.926.877-1.926s-1.377.563-1.941 1.25m250.815.684c-.569 1.064-1.035 3.073-1.035 4.465s-1.35 4.069-3 5.948c-1.65 1.879-3 3.695-3 4.035 0 1.166 2.833.618 3.271-.632.318-.911.988-.762 2.465.549 1.409 1.249 2.828 1.597 4.646 1.141 2.956-.742 3.379-2.564 1.044-4.501-1.398-1.161-1.287-1.456 1-2.654 3.299-1.729 3.299-4.065.001-4.893-1.833-.46-2.265-.954-1.5-1.719 1.717-1.717 1.242-3.673-.892-3.673-1.08 0-2.43.87-3 1.934M424 101c0 .55.477 1 1.059 1s.781-.45.441-1-.816-1-1.059-1-.441.45-.441 1m121 0c-.901.582-1.025.975-.309.985.655.008 1.469-.435 1.809-.985.767-1.242.421-1.242-1.5 0m-7.921 2.583c.048 1.165.285 1.402.604.605.289-.722.253-1.585-.079-1.917-.332-.332-.568.258-.525 1.312m7.921.976c0 .857.457 1.276 1.016.931.559-.346.758-1.047.441-1.559-.857-1.387-1.457-1.129-1.457.628m-129.158 1.043c1.258.881 2.558 1.331 2.889 1 .331-.331-.035-.609-.814-.617-1.167-.013-1.152-.187.083-.985 1.154-.746.814-.973-1.473-.985l-2.972-.015 2.287 1.602m16.159-.104c-.788.95-2.05 1.304-3.267.917-1.314-.417-1.753-.255-1.3.478.376.609 1.246 1.107 1.934 1.107 1.723 0 5.267-2.698 4.523-3.442-.333-.334-1.184.09-1.89.94M170 108.809c0 6.098-6.686 8.009-12.095 3.458l-3.248-2.734.671 3.359c.37 1.847.672 4.427.672 5.733 0 2.768 1.916 3.015 9.965 1.289 6.535-1.401 7.708-2.653 7.226-7.706-.381-3.992-3.191-6.986-3.191-3.399m4.37 2.441c.331 1.237.609 6.188.616 11 .015 9.612.449 10.129 5.04 6l3.058-2.75-2.056-5.947c-2.327-6.732-4.56-10.553-6.168-10.553-.646 0-.847.921-.49 2.25M541.5 111c-1.63.701-1.688.872-.309.93.93.038 1.969-.38 2.309-.93.711-1.15.676-1.15-2 0m-393.819 3.25C144.517 117.067 137 128.171 137 130.031c0 .75 4.293 2.849 8.167 3.994 2.494.737 2.813.452 4.902-4.369 1.23-2.836 2.242-7.049 2.25-9.362.008-2.313.389-3.974.848-3.691.458.283.833-.862.833-2.544 0-3.969-1.702-3.918-6.319.191m-66.483 6c.293 5.1.388 5.25 3.302 5.247 4.05-.005 4.467-3.194.963-7.359-3.699-4.396-4.614-3.943-4.265 2.112m333.238-2.374c-5.517 3.364-15.596 22.054-15.796 29.29-.13 4.685 1.769 6.76 10.192 11.139 9.538 4.958 10.81 5.233 11.465 2.474a80.58 80.58 0 0 1 1.21-4.42c.679-2.172-3.414-5.79-11.954-10.567-2.138-1.196-2.518-1.721-1.267-1.75 1.759-.041 2.659-1.666 8.333-15.042 1.284-3.025 2.334-4.825 2.335-4 .001.825-.923 3.525-2.053 6-2.878 6.299-1.943 16.136 1.837 19.334 1.408 1.191 3.953 3.67 5.655 5.507 3.565 3.849 5.776 3.863 14.552.087 4.426-1.904 5.113-2.553 4.583-4.334-1.297-4.35-5.537-29.918-5.044-30.412.284-.283.521-.103.526.401.081 7.172 4.159 19.951 7.925 24.833 3.695 4.789 16.571 16.528 19.102 17.414 3.016 1.056.139-7.844-4.061-12.558-2.462-2.764-7.987-10.686-12.279-17.604C440.53 118.889 434 112.357 434 117.965c0 4.555-7.761 4.855-10.672.412-1.873-2.858-4.761-3.02-8.892-.501m-260.357 1.707c.048 1.165.285 1.402.604.605.289-.722.253-1.585-.079-1.917-.332-.332-.568.258-.525 1.312m306.765-.614C450.194 120.048 444 121.03 444 121.64c0 1.13 12.482 20.74 16.474 25.881 5.476 7.053 8.338 9.247 12.585 9.651 2.913.278 3.49.75 3.757 3.078l.317 2.75h12.778c11.372 0 12.972-.213 14.532-1.938 2.098-2.317 1.342-9.523-1.144-10.915-3.122-1.747.134-4.801 5.838-5.477 5.612-.664 8.149.421 7.139 3.053-.78 2.034 3.727 1.044 8.42-1.849 2.868-1.768 7.304-10.238 7.304-13.945 0-1.859 4.932-10.74 6.219-11.199.705-.251.906-.855.449-1.343-1.044-1.112-67.456-1.469-77.824-.418M309 122.5c0 1.925.36 3.5.799 3.5.44 0 .616-1.575.391-3.5-.225-1.925-.585-3.5-.799-3.5-.215 0-.391 1.575-.391 3.5m77.683 1.199c-.996 2.859-1.657 6.909-1.47 9l.34 3.801 1.789-5.729c.983-3.151 1.644-7.201 1.469-9-.311-3.194-.362-3.148-2.128 1.928M418 120.941c0 .518.445 1.216.989 1.552.566.35.734-.051.393-.941-.665-1.732-1.382-2.049-1.382-.611m138.48 4.019c3.851 7.448 6.457 28.893 4.768 39.244-.756 4.633-.664 5.806.492 6.25 3.339 1.281 5.163.387 7.561-3.705 3.185-5.434 5.632-7.616 10.383-9.259 4.374-1.512 4.42-1.958 1.307-12.49-2.513-8.502-8.722-15.71-17.167-19.93-8.018-4.007-9.37-4.027-7.344-.11m-236.48.184c-3.025.953-6.685 1.761-8.133 1.795-1.806.042-2.807.722-3.184 2.164-.53 2.027-.265 2.09 7.339 1.744 8.541-.387 10.312-1.294 9.806-5.021l-.328-2.417-5.5 1.735m-166.864.211c-.075 1.02-1.28 4.133-2.679 6.917-2.624 5.224-2.643 8.12-.048 7.124 1.669-.64 3.968-10.155 3.297-13.642-.326-1.695-.467-1.794-.57-.399m394.8 7.395c-8.316 19.101-9.174 19.75-26.136 19.75-7.84 0-12.1-.4-12.914-1.214-.951-.951-.393-1.08 2.585-.597 3.001.487 3.694.322 3.304-.786-.445-1.268-7.312-1.699-8.478-.533-1.432 1.432 1.176 5.641 3.561 5.748 2.602.117 2.596.13-.358.882-4.285 1.09-3.792 1.189 12.538 2.5 19.254 1.545 29.982-6.111 32.549-23.23 1.62-10.801-2.385-12.319-6.651-2.52m-13.739-3c-.576 1.512-1.779 5.075-2.674 7.916-2.014 6.39-5.595 10.094-11.214 11.596-2.37.634-4.309 1.509-4.309 1.945 0 1.412 13.37.828 15.347-.67 1.016-.77 2.433-1.175 3.149-.9.716.275 1.646-.058 2.067-.739.507-.82.288-1.055-.649-.695-1.608.617-1.902-9.229-.506-16.953.877-4.853.324-5.537-1.211-1.5m-354.952 1.027-3.254 2.723 2.41 3c2.047 2.547 3.103 3 7.005 3.002 4.8.003 5.498-.507 3.248-2.374-.74-.614-2.158-2.919-3.151-5.122-2.133-4.729-2.086-4.72-6.258-1.229M218 133.5v5.5h3.5c3.018 0 3.5-.327 3.5-2.375 0-1.306.281-3.781.625-5.5.619-3.096.587-3.125-3.5-3.125H218v5.5m33 1c0 4.29.134 4.5 2.875 4.5 2.42 0 2.974-.495 3.5-3.125 1.085-5.423.863-5.875-2.875-5.875-3.481 0-3.5.024-3.5 4.5m64-2.545c-6.231.494-7.02.739-4.661 1.45 3.429 1.034 13.529.127 15.003-1.347.744-.744.479-1.004-.892-.878-1.073.099-5.325.448-9.45.775m-180.474 2.995c-2.281 4.412-1.931 5.05 2.774 5.05 7.173 0 8.955-3.554 3.166-6.315-4.475-2.134-4.146-2.204-5.94 1.265m39.201.697c-.659 3.449-.187 4.353 2.273 4.353 2.878 0 3.03-1.224.54-4.347l-2.27-2.847-.543 2.841m93.273.668-5.5 2.185 3.684.306c5.739.478 12.264-1.561 10.767-3.364-1.53-1.845-2.3-1.77-8.951.873m-122.324 1.087c-.625 1.629.215 2.784 1.463 2.012 1.136-.702 1.111-3.414-.032-3.414-.491 0-1.135.631-1.431 1.402m267.516 4.077c-1.1 2.413-1.065 3.077.232 4.373 2.087 2.088 2.479 1.337 1.714-3.285l-.65-3.933-1.296 2.845M83 142.059c0 1.132.45 1.781 1 1.441.55-.34 1-1.266 1-2.059 0-.793-.45-1.441-1-1.441s-1 .927-1 2.059m164 .566c0 2.407.26 2.573 3.125 2 1.719-.344 10.269-.625 19-.625 15.208 0 15.875-.084 15.875-2 0-1.93-.667-2-19-2h-19v2.625m143.699.712c-2.404 3.669-4.894 12.095-4.52 15.298l.335 2.865 1.289-2.27c1.417-2.496 5.42-17.341 4.834-17.927-.201-.201-1.073.714-1.938 2.034m-13.948 2.706c-.584 4.512.385 13.427 1.592 14.633.916.917.689-14.735-.249-17.133-.589-1.505-.899-.928-1.343 2.5m66.26-.989c-.024 3.367 5.118 11.617 9.194 14.75 7.741 5.95 12.968 5.604 5.961-.394-5.468-4.68-9.46-8.698-12.598-12.68-1.594-2.023-2.55-2.649-2.557-1.676m-389.823.685c-4.809.335-5.283.578-5 2.565.281 1.977 1.059 2.253 7.812 2.766 5.182.394 1.982.625-10.357.75l-17.856.18.726 46.75c.399 25.713.897 46.938 1.106 47.167 1.086 1.187 1.136-3.944.454-45.917-.407-25.025-.68-45.597-.608-45.716.534-.868 12.973-1.229 44.754-1.297 22.127-.048 36.954-.458 37.309-1.033.367-.593-8.603-1.03-23.719-1.155-13.37-.111-20.822-.355-16.559-.542 7.472-.329 7.75-.429 7.75-2.799V145l-10.25.185c-5.638.102-12.641.351-15.562.554M81 147.5c0 3.251 5.444 3.735 6.275.558.654-2.502.028-3.058-3.442-3.058-2.355 0-2.833.422-2.833 2.5m283.733 1.624c.679.684 1.486.991 1.793.683.308-.308-.247-.867-1.233-1.243-1.425-.542-1.54-.428-.56.56m-68.764 4.833c2.255 3.166 6.748 7.043 8.163 7.043.474 0-1.473-2.25-4.326-5-5.968-5.752-6.789-6.19-3.837-2.043m-7.288 3.293c-11.227 13.818-11.156 16.748.735 30.25l3.523 4 3.277-3.266c3.234-3.223 3.255-3.301 1.563-6-.943-1.504-2.492-4.206-3.442-6.005l-1.727-3.271 5.162-5.229 5.162-5.229-4.781-4.75c-5.779-5.742-5.236-5.713-9.472-.5m33.819-3.301c-3.85.361-7.9 1.223-9 1.917-2.063 1.302 9.51.922 15.165-.497 2.046-.513 3.537-2.604 1.585-2.222-.413.08-3.9.441-7.75.802m186.25-.287c.688.278 1.813.278 2.5 0 .688-.277.125-.504-1.25-.504s-1.937.227-1.25.504m-475.464 2.161c-.614.38-1.438 3.95-1.831 7.934L30.742 171l5.379.157 5.379.157-5 .593-5 .593-.289 9.327-.288 9.326 33.788-.281c18.584-.155 36.151-.458 39.039-.673l5.25-.392V174.06l-12.75-.313-12.75-.312 12.75-.218L109 173v-18.061l-37.298.097c-20.514.053-37.801.407-38.416.787m179.964-.078c-10.441.373-11.513 1.369-4.25 3.949 4.726 1.678 4.998 1.968 4.971 5.291-.028 3.443-6.551 79.547-6.987 81.515-.121.55-.139 1.9-.039 3 .172 1.895.228 1.885 1.063-.187.851-2.113 1.303-2.175 13.187-1.829 9.09.266 10.868.145 6.805-.463-3.025-.453-8.798-.868-12.829-.922l-7.33-.099.534-2.75c.294-1.512.834-7.144 1.2-12.515s.965-9.951 1.332-10.177c.367-.227 6.163-.734 12.88-1.127l12.213-.714.116 4.891c.064 2.691.321 4.109.572 3.151.39-1.493-3.57-47.302-5.264-60.881-.553-4.432-.46-4.652 2.25-5.318 3.842-.945 7.52-3.436 6.799-4.604-.562-.91-6.377-.955-27.223-.211m182.807 1.86c-7.996 6.729-12.584 21.628-11.807 38.34.678 14.555.318 14.055 10.107 14.055h8.143l.037-18.25c.033-16.105.296-19.014 2.237-24.75 2.757-8.145 2.836-7.46-1.142-9.918-4.18-2.584-3.855-2.607-7.575.523m39.943.545c-4.529 1.753-6.148 2.692-4.088 2.369 3.177-.497 14.795-5.4 12.588-5.312-.55.022-4.375 1.346-8.5 2.943m-222-1.208-8.5.57 4.5 1.374c8.512 2.599 29 .949 29-2.335 0-.636-12.629-.438-25 .391m207.642 2.308c-.442 1.68.209 3.009 2.571 5.25 1.739 1.65 2.589 2.232 1.889 1.294-1.351-1.809-.616-4.23.983-3.241.521.322.72.953.442 1.403-.278.449.09 1.311.817 1.915 2.347 1.947 1.612-2.081-1.025-5.621-2.831-3.801-4.848-4.156-5.677-1m-384.007.823C33.01 163.711 34.524 170 40.026 170c5.422 0 8.884-6.961 5.145-10.345-2.424-2.194-4.352-2.087-7.536.418m15.82.382C49.588 164.321 50.977 171 55.648 171c2.2 0 7.352-5.512 7.352-7.866 0-4.667-5.902-6.323-9.545-2.679m257.449-2.26c-.052.168-.615 8.834-1.25 19.258-1.06 17.405-1.011 19.273.596 22.86.962 2.148 1.75 4.383 1.75 4.967 0 .585-.788 1.948-1.75 3.03-1.728 1.943-1.658 1.958 5.75 1.244 4.125-.398 7.696-.919 7.936-1.158.24-.239-.435-11.563-1.5-25.165L320.5 158.5l-4.75-.305c-2.613-.167-4.793-.167-4.846 0m266.846 1.377c-1.513.821-2.744 1.59-2.737 1.71.007.12.885 2.999 1.95 6.397 2.458 7.84 4.427 25.869 3.671 33.609l-.581 5.939 6.723-.712c3.698-.392 6.949-.931 7.224-1.198 1.529-1.487.419-33.028-1.322-37.539-3.207-8.312-8.932-11.459-14.928-8.206m-539.79 1.259c-2.288 1.853-2.224 8.068.069 6.651.534-.33.971-.123.971.459 0 .582.702 1.059 1.559 1.059s1.312-.399 1.011-.887c-.302-.488.212-.825 1.14-.75 2.37.192 4.062-4.728 2.34-6.803-1.719-2.071-4.321-1.971-7.09.271m16.229.208c-4.322 4.026-1.182 10.633 3.788 7.973 3.813-2.04 4.947-5.945 2.452-8.441-2.095-2.094-3.613-1.98-6.24.468m13.884.596C64.491 166.188 65.842 171 70.7 171c3.143 0 6.3-3.408 6.3-6.8 0-5.558-5.361-7.099-8.927-2.565m15.988-.696c-2.826 2.826-2.833 8.681-.012 9.577 4.424 1.404 9.717-5.477 7.246-9.421-1.504-2.4-4.916-2.474-7.234-.156m15.303-.769c-3.822 1.85-5.3 6.751-2.793 9.259 2.259 2.259 5.153 1.938 7.974-.884 5.148-5.147 1.231-11.48-5.181-8.375m201.886 5.894c-3.988 3.866-7.251 7.346-7.252 7.733-.001.387 3.037 5.147 6.75 10.578l6.752 9.874.29-4.374c1.059-15.957 1.647-30.872 1.217-30.858-.279.01-3.769 3.181-7.757 7.047m205.452-5.814c-2.327 1.731-3.38 8.586-4.186 27.25-.43 9.949-1.197 17.04-2.027 18.75-1.62 3.335-.481 3.529 2.944.5 2.201-1.947 2.813-3.955 4.542-14.899 3.112-19.699 3.652-20.419 12.712-16.952 3.082 1.179 5.713 2.022 5.848 1.872.506-.562-1.133-14.702-1.78-15.349-2.157-2.157-15.559-3.027-18.053-1.172m-437.641 1.689c-2.053 2.053-2.954 6.731-1.072 5.568.566-.35.734.051.393.941-.884 2.303 3.885 2.019 6.038-.36 4.358-4.815-.787-10.721-5.359-6.149m15.594-.11c-1.83 2.022-2.224 6.701-.646 7.677 1.554.96 4.991-.467 4.991-2.073 0-.788.4-1.433.889-1.433 1.242 0 .854-3.242-.568-4.75-1.611-1.709-2.72-1.571-4.666.579m13.731.694c-2.777 2.777-2.824 5.172-.136 6.865 3.797 2.391 9.89-5.281 6.309-7.944-2.628-1.955-3.248-1.846-6.173 1.079m308.218 3.065c-.969 3.073-1.614 5.728-1.433 5.899.76.72 14.828-3.059 14.814-3.979-.031-2.041-8.354-7.508-11.429-7.508-.105 0-.983 2.515-1.952 5.588m61.771-2.463c.344 1.719.625 3.744.625 4.5 0 .761 1.005 1.372 2.25 1.369 1.98-.005 2.265-.545 2.374-4.5.121-4.354.031-4.494-2.875-4.494-2.826 0-2.963.181-2.374 3.125m65.125-1.047c7.641 2.413 9.062 2.372 4.071-.118-2.16-1.078-5.31-1.919-7-1.869-2.514.075-1.984.435 2.929 1.987m-318.056.422c-.739 2.362-4.723 55.554-4.2 56.078.318.317 5.793.256 12.167-.136l11.589-.714-.019-3.114c-.01-1.713-1.131-14.139-2.491-27.614-1.36-13.475-2.477-24.739-2.481-25.032-.016-.993-14.25-.474-14.565.532M39 164c0 1.289.506 1.998 1.25 1.75.688-.229 1.25-1.017 1.25-1.75 0-.733-.562-1.521-1.25-1.75-.744-.248-1.25.461-1.25 1.75m16 .5c0 .825.675 1.5 1.5 1.5s1.5-.675 1.5-1.5-.675-1.5-1.5-1.5-1.5.675-1.5 1.5m14.774.743c.563 2.155 2.587 1.81 3.038-.518.206-1.063-.339-1.561-1.603-1.466-1.34.101-1.771.698-1.435 1.984m15.769-1.312c-.74 1.197 1.141 2.382 2.473 1.559 1.119-.691.384-2.49-1.016-2.49-.485 0-1.141.419-1.457.931M420 163.463c0 7.945 16.421 29.177 40.386 52.218 7.213 6.934 12.209 12.135 11.103 11.556-1.106-.578-2.864-1.993-3.905-3.144-1.042-1.151-2.929-2.093-4.194-2.093h-2.299l2.454 2.455c1.35 1.35 2.455 2.925 2.455 3.5 0 1.138 4.862 1.419 7.44.43 1.197-.46-3.035-5.201-16.737-18.75-20.035-19.811-27.029-28.326-32.353-39.385-3.067-6.372-4.35-8.374-4.35-6.787M474 165c0 1.1.45 2 1 2s1-.9 1-2-.45-2-1-2-1 .9-1 2m97.158 1.245c-2.776 4.491-2.718 5.576.342 6.344 1.375.345 2.5 1.029 2.5 1.519 0 1.104.432 1.153-5.409-.619-7.168-2.174-8.494-1.944-10.114 1.761-4.548 10.399-8.67 11.502-23.858 6.384l-9.882-3.33.57 8.098c.314 4.454 1.098 10.918 1.742 14.365l1.171 6.267 25.14-.267 25.14-.267-.036-14c-.034-13.562-1.268-22.137-3.939-27.373l-1.21-2.373-2.157 3.491M100 165.583c0 .871.534 1.406 1.188 1.188 1.854-.618 2.161-2.771.395-2.771-.87 0-1.583.713-1.583 1.583m273.791-1.041c-.775.776 4.822 26.471 6.029 27.678 1.888 1.888 2.887-.154 3.546-7.249.566-6.093 2.129-11.951 5.126-19.221.65-1.575-.024-1.75-6.718-1.75-4.093 0-7.685.244-7.983.542m102.666 2.708c-.748 2.541-1.576 3.321-3.793 3.575l-2.835.324 4.085 3.772c2.995 2.764 4.081 4.547 4.069 6.675-.017 2.75-2.261 17.717-3.546 23.654l-.596 2.75h11.957c15.742 0 14.578 1.852 15.715-25 .338-7.975.86-15.512 1.159-16.75.544-2.245.517-2.25-12.357-2.25h-12.901l-.957 3.25m-13.129.285c3.986 2.752 5.87 2.596 4.036-.333-.586-.936-2.595-1.839-4.465-2.006l-3.399-.303 3.828 2.642m-52.811 4.296c-5.81 1.622-6.004 1.787-6.693 5.67-.893 5.039-.892 20.564.002 26.499l.679 4.5 5.997-.198c11.863-.392 16.187-.353 28.433.256l12.436.618-7.436-8.111c-10.069-10.984-17.564-20.597-20.516-26.315-2.79-5.403-3.462-5.555-12.902-2.919M42 172c0 .55-.605 1-1.345 1-2.316 0-4.896 3.665-4.176 5.932.633 1.995 1.308 6.123 1.452 8.884.168 3.211 5.522.8 6.253-2.816.389-1.925.996-4.666 1.348-6.092.434-1.755.108-3.125-1.009-4.242-.908-.908-1.37-2.104-1.028-2.658.343-.555.146-1.008-.436-1.008S42 171.45 42 172m9 .661c10.567.707 31.724.779 30.66.104-.638-.404-8.81-.66-18.16-.569-9.35.09-14.975.3-12.5.465m-12.25 2.419c-2.689 1.566-2.082 2.92 1.309 2.92 1.761 0 2.8.419 2.448.989-.35.566.051.734.941.393 2.144-.823 1.944-3.102-.382-4.347-2.302-1.232-2.12-1.234-4.316.045m13.744.569c-.989.989-1.424 2.49-1.085 3.75.31 1.156.577 3.226.593 4.601.07 6.084 6.249 6.649 7.341.671.319-1.744.857-4.116 1.196-5.272C61.26 176.94 58.789 174 56 174c-1.021 0-2.599.742-3.506 1.649m393.506-.91c0 .967 11.76 9.848 14.362 10.846 1.29.495 1.623.022 1.568-2.228-.053-2.15-.244-2.418-.772-1.083-.614 1.555-1.597 1.144-7.93-3.318-3.975-2.801-7.228-4.698-7.228-4.217m67 3.344c0 5.098 2.913 16.515 7.386 28.95 3.375 9.381 4.65 16.482 3.34 18.601-1.444 2.337-2.633 6.366-1.878 6.366 1.987 0 9.05-10.196 8.196-11.832-1.654-3.17-6.089-29.69-6.066-36.282l.022-6.614-4.283-1.636c-6.208-2.371-6.717-2.186-6.717 2.447m-459.869-1.741c-1.521 1.833-.423 2.658 3.536 2.658 3.507 0 4.124-.809 2.133-2.8-1.591-1.591-4.287-1.523-5.669.142m16.616.642c-4.521 3.556-4.407 10.037.202 11.5 2.334.74 7.558-1.756 8.43-4.029 2.804-7.309-2.739-12.106-8.632-7.471m.176 1.939c-3.295 3.295-3.641 5.216-1.352 7.506 1.79 1.789 4.429 2.095 4.429.512 0-.582.419-.8.932-.483 1.247.771 4.068-3.376 4.068-5.981 0-4.969-3.91-5.721-8.077-1.554m21.712-.85c-2.835 2.229-3.555 6.607-1.435 8.727 3.185 3.185 10.8-.814 10.8-5.673 0-5.271-4.628-6.78-9.365-3.054M92 179c-1.357 1.357-2.009 3.09-1.811 4.811.414 3.579 4.759 4.241 7.811 1.189 3.052-3.052 2.39-7.397-1.189-7.811-1.721-.198-3.454.454-4.811 1.811m-36.731 1.693c.973.254 2.323.237 3-.037.677-.274-.119-.481-1.769-.461-1.65.02-2.204.244-1.231.498M71 182c0 1.506.522 2.046 1.75 1.81.963-.186 1.75-1 1.75-1.81s-.787-1.624-1.75-1.81c-1.228-.236-1.75.304-1.75 1.81m23 .083c0 2.437 2.337 2.093 2.823-.416.192-.987-.318-1.667-1.25-1.667-.927 0-1.573.855-1.573 2.083m356.997 1.021c6.391 9.269 9.342 12.27 10.119 10.291 1.815-4.626 1.692-4.769-11.038-12.791-.782-.493-.368.632.919 2.5M72 182.059c0 .582.45.781 1 .441s1-.816 1-1.059-.45-.441-1-.441-1 .477-1 1.059m438.659.941c-.518 2.155-3.659 23.218-3.659 24.53 0 .259 2.7.47 6 .47s6-.239 6-.532c0-.292-.945-3.329-2.099-6.75-1.154-3.42-2.896-9.368-3.871-13.218-1.421-5.617-1.89-6.506-2.371-4.5m-47.2.067c-1.076 1.741.149 2.11 1.521.457.789-.95.865-1.524.201-1.524-.584 0-1.36.48-1.722 1.067m-165.765 5.465c-1.543 1.357-2.345 2.468-1.781 2.468.563 0 .729.787.368 1.75-.57 1.522-.439 1.574 1.004.401 1.745-1.419 5.823 1.075 4.28 2.618-.371.37-1.075.024-1.565-.769s-1.178-1.155-1.528-.805c-1.009 1.009 4.772 6.926 6.222 6.369.718-.276 1.306-.065 1.306.467 0 .533-.788.976-1.75.984-1.287.012-1.41.231-.466.83 1.858 1.179.436 4.173-1.617 3.405-1.503-.563-1.52-.44-.167 1.255.873 1.093.977 1.565.25 1.128-1.975-1.187-3.56.288-2.144 1.995 2.505 3.018 6.894-3.083 6.894-9.583 0-5.583-3.486-13.045-6.095-13.045-.563 0-.745-.45-.405-1 .952-1.541.252-1.158-2.806 1.532m.178 1.218c-1.243 1.586-1.208 1.621.378.378.962-.755 1.75-1.543 1.75-1.75 0-.823-.821-.294-2.128 1.372m165.297-.25c-.105 1.1-.47 3.8-.81 6-.475 3.069-.342 3.741.571 2.89.722-.674 1.041-3.036.811-6-.209-2.69-.467-3.99-.572-2.89m-291.841 4.385c-5.443 2.541-7.123 5.296-10.008 16.412-1.313 5.062-3.499 10.778-4.856 12.703a4210.906 4210.906 0 0 0-5.057 7.187c-2.691 3.832-4.406 9.338-3.63 11.653.257.765 1.647-.757 3.241-3.547 5.929-10.382 15.333-15.59 20.892-11.572 1.425 1.029 4.058 4.743 5.851 8.253 4.067 7.957 3.967 7.871 5.235 4.537.861-2.266.67-3.412-1.063-6.349-1.901-3.223-1.986-3.972-.84-7.443 1.099-3.331 1.025-4.591-.541-9.198-2.128-6.259-1.683-8.823 2.425-13.993 1.663-2.091 3.023-4.586 3.023-5.543 0-4.449-8.11-6.162-14.672-3.1m15.288 4.865c-.34.963-.88 2.313-1.2 3.001-.397.851.003 1.06 1.25.655 1.47-.477 1.546-.391.382.434-.799.565-1.777.827-2.174.582-.903-.558-4.874 4.917-4.874 6.722 0 1.997 3.387 9.848 4.25 9.852 1.487.008 4.75-4.038 4.75-5.889 0-1.041.67-2.15 1.489-2.464 1.163-.447 1.273-1.14.5-3.172-.544-1.431-.989-3.885-.989-5.454 0-5.311-2.087-7.943-3.384-4.267m115.891-.761c-.35.566.051.734.941.393 1.732-.665 2.049-1.382.611-1.382-.518 0-1.216.445-1.552.989m6.057 5.718c-.542 1.425-.428 1.54.56.56.684-.679.991-1.486.683-1.793-.308-.308-.867.247-1.243 1.233m-123.021 2.224c-.317.512-.118 1.213.441 1.559.559.345 1.016-.074 1.016-.931 0-1.757-.6-2.015-1.457-.628m123.329.819c-1.243 1.586-1.208 1.621.378.378.962-.755 1.75-1.543 1.75-1.75 0-.823-.821-.294-2.128 1.372m-48.121.939c-.962.252-2.012 1.662-2.332 3.134-.32 1.472-1.071 3.967-1.669 5.543-.903 2.377-.804 3.024.581 3.799.918.514 1.669 1.517 1.669 2.23 0 2.222 3.518 4.605 6.797 4.605 2.309 0 2.995.378 2.593 1.427-.4 1.042.013 1.28 1.531.883 2.136-.558 2.854-3.713 1.093-4.801-1.109-.686-.903-3.292.429-5.429.682-1.094.47-1.261-.92-.727-1.527.586-1.61.457-.542-.83 2.307-2.78 4.528-1.949 2.611.977-1.691 2.581-.911 3.419 1.208 1.3 2.478-2.478 1.462-5.102-1.729-4.464-2.663.532-2.992.294-3.616-2.625-1.146-5.363-2.649-6.343-7.704-5.022m240.59 1.526c-3.604 1.812-7.673 6.785-5.552 6.785 1.5 0 8.191-5.093 9.221-7.019.583-1.09.932-1.953.775-1.919-.157.034-2.157 1.003-4.444 2.153m-83.991.07c-3.583 2.025-10.517 11.954-9.927 14.215.286 1.1 1.098 4.475 1.803 7.5 1.711 7.343 2.583 8.643 4.26 6.35 1.082-1.48.984-2.345-.596-5.295-2.428-4.529-2.385-7.682.183-13.487 2.65-5.991 4.567-6.757 7.551-3.015l2.304 2.89 3.286-2.964c1.807-1.63 3.703-3.294 4.213-3.698 2.81-2.227-9.421-4.561-13.077-2.496m57.9.421c-2.91.56-2.883.685 1.25 5.729 1.925 2.349 3.514 5.125 3.532 6.168.017 1.043.675 2.747 1.462 3.787 1.913 2.526 5.841.138 7.907-4.808.776-1.858 2.043-3.761 2.816-4.23 1.567-.951 4.783-5.371 4.783-6.575 0-.795-17.689-.853-21.75-.071m-213.437.977c.721.289 1.584.253 1.916-.079.332-.332-.258-.568-1.312-.525-1.165.048-1.402.285-.604.604m34.645 2.741c-2.203 3.362-1.611 3.955 1.557 1.562 1.883-1.423 2.205-2.159 1.328-3.039-.877-.88-1.574-.523-2.885 1.477m-34.915-.493c-.317.512-.118 1.213.441 1.559.559.345 1.016-.074 1.016-.931 0-1.757-.6-2.015-1.457-.628m167.534 1.658c-3.596 3.026-3.816 3.985-1.077 4.701 1.127.294 2 1.364 2 2.45 0 2.875 1.121 3.461 3.136 1.637 1.013-.916 2.686-1.395 3.831-1.096 2.303.602 2.475-.253 1.051-5.217-1.633-5.695-4.253-6.42-8.941-2.475M184 214.25c0 .898.48 1.929 1.067 2.291 1.715 1.06 1.883.111.351-1.984-1.186-1.622-1.418-1.672-1.418-.307m232.57.636c-.301.488.373 1.127 1.498 1.422 1.678.438 1.834.279.867-.887-1.381-1.664-1.632-1.72-2.365-.535M41.544 217.25c1.668 5.532 7.383 14.784 7.434 12.034C49.003 227.93 42.09 215 41.341 215c-.262 0-.17 1.012.203 2.25M491 220c-.854 1.596-.76 2 .465 2 .844 0 1.535-.188 1.535-.418 0-.23.273-1.13.607-2 .882-2.299-1.344-1.942-2.607.418m-350.93.146c-4.637.485-8.52.987-8.631 1.117-.11.131-.834 5.749-1.609 12.487L128.42 246h9.123c10.14 0 10.707-.211 9.45-3.518-1.226-3.224.396-8.369 4.534-14.385 6.385-9.281 5.717-9.745-11.457-7.951M461.5 220c.34.55.816 1 1.059 1s.441-.45.441-1-.477-1-1.059-1-.781.45-.441 1m-375.427 2.635c-2.231 2.835-2.63 4.365-1.141 4.365.918 0 5.068-5.244 5.068-6.404 0-1.434-2.021-.384-3.927 2.039m440.433-.641c-.999 1.103-1.351 2.006-.783 2.006 1.258 0 3.752-2.858 3.08-3.53-.265-.265-1.299.42-2.297 1.524m-264.251.969c-1.01 1.618-.978 1.868.182 1.423 1.512-.581 2.981-3.386 1.772-3.386-.4 0-1.28.883-1.954 1.963m162.558.72c.721.289 1.584.253 1.916-.079.332-.332-.258-.568-1.312-.525-1.165.048-1.402.285-.604.604m9.059.981c-1.235 1.498-1.162 1.552.731.543 1.926-1.026 2.068-.892 1.689 1.586-.361 2.359-.267 2.474.731.896 2.238-3.54-.532-6.2-3.151-3.025m55.36.116c.256.978-.227 2.426-1.074 3.217-1.352 1.263-1.456 1.223-.86-.332.407-1.061.284-1.524-.309-1.158-.544.336-.989 1.286-.989 2.111 0 .825-.451 1.221-1.002.881-.904-.559-3.509 4.323-2.726 5.107 2.433 2.432 12.009-7.725 10.137-10.753-1.033-1.671-3.656-.906-3.177.927m-64.689 1.151c-.317.512-.118 1.213.441 1.559.559.345 1.016-.074 1.016-.931 0-1.757-.6-2.015-1.457-.628m37.477.593c.696.838 1.471 1.318 1.723 1.067.693-.694-.716-2.591-1.924-2.591-.664 0-.588.574.201 1.524m14.913.601c-.962 1.797-.743 2.52 1.42 4.683l2.558 2.557 1.073-2.822c1.783-4.69-2.773-8.674-5.051-4.418m-312.677-.008c-7.895 2.28-15.102 14.492-23.748 40.237-6.845 20.382-7.918 32.123-3.106 33.97 1.119.429 1.082-.229-.199-3.489-1.627-4.142-1.036-11.008 1.809-21.023.975-3.431 1.236-3.628 3.768-2.832 5.399 1.697 8.22 2.053 8.22 1.039 0-.56-1.238-1.039-2.75-1.064-1.512-.025-4.1-.707-5.75-1.515-1.65-.809-2.208-1.251-1.24-.983 5.833 1.616 14.972 2.627 17.076 1.889 2.394-.839 11.684-12.1 13.782-16.705.942-2.068.534-3.328-2.952-9.107-3.783-6.272-5.95-12.083-4.899-13.134.251-.252 1.001 1.486 1.666 3.862 1.304 4.656 9.463 17.333 12.306 19.121 1.401.88 2.256.577 4.391-1.559l2.652-2.652-5.573-11.46c-4.834-9.941-9.3-15.958-11.594-15.622-.338.05-2.075.512-3.859 1.027M414 227c0 .55.45 1 1 1s1-.45 1-1-.45-1-1-1-1 .45-1 1m5 1.941c0 1.618.356 3.161.791 3.43.435.269.611-1.055.391-2.941-.491-4.203-1.182-4.489-1.182-.489m-344.37.309c-.979 3.655-.714 14.58.37 15.25.639.395 1-2.656 1-8.441 0-9.262-.305-10.78-1.37-6.809m163.002 8.5c.369 6.589.188 9.25-.628 9.25-.705 0-.569.578.353 1.5 1.695 1.695 3.081 2.018 2.143.5-.34-.55.309-1 1.441-1 1.132 0 2.059-.436 2.059-.969 0-.532-.671-.711-1.492-.396-1.894.727-2.26-.352-3.434-10.135l-.96-8 .518 9.25m31.459-6.902c-3.364 1.63-6.006 4.57-5.007 5.57.43.429 9.471-3.64 10.604-4.773 1.604-1.604-2.674-2.214-5.597-.797m-222.168 3.008c1.204 2.25 5.077 4.793 5.077 3.334 0-.912-2.499-3.313-4.85-4.659-1.088-.623-1.132-.366-.227 1.325m13.112-1.356c-.78 4.013-1.403 17.228-.794 16.851.417-.258.759 1.106.759 3.031 0 4.534 1.96 5.853 2.119 1.427.292-8.086-1.363-25.013-2.084-21.309M418 233.771c0 1.619 2.97 2.316 5.072 1.19 1.061-.567 1.928-1.256 1.928-1.531 0-.275-.929-.003-2.064.604-1.532.82-2.434.798-3.5-.087-.856-.711-1.436-.782-1.436-.176m-149 1.981c-1.925.961-3.5 2.207-3.5 2.768 0 .561-1.786 3.711-3.97 7-10.802 16.272-14.15 26.48-8.685 26.48 4.211 0 9.442-6.977 17.619-23.5 1.905-3.85 3.48-6.426 3.5-5.725.02.701-1.569 4.462-3.531 8.358l-3.567 7.083 4.212 7.142c2.317 3.928 5.159 8.849 6.317 10.935 2.361 4.255 2.913 4.292 14.903 1.006 6.836-1.874 6.814-1.486.988-17.299-8.554-23.22-14.487-29.144-24.286-24.248M484 236c0 .55.423 1 .941 1s1.219-.45 1.559-1c.34-.55-.084-1-.941-1s-1.559.45-1.559 1m-216.5 2c-1.319.567-1.489.878-.5.914.825.031 2.175-.381 3-.914 1.828-1.181.249-1.181-2.5 0m-22.893 7.582c-.939 2.446-.735 2.769.893 1.418 1.662-1.38 1.99-3 .607-3-.491 0-1.166.712-1.5 1.582M72 245.93c0 .512-.856 1.075-1.902 1.25-1.686.284-1.459.933 2 5.724 3.801 5.264 3.902 5.326 3.902 2.405 0-1.729-.847-3.765-2-4.809-2.04-1.847-2.803-4.115-1.011-3.007.566.35.734-.051.393-.941-.663-1.727-1.382-2.051-1.382-.622m5.75.647c-.412.416-.721 2.144-.687 3.84.062 3.015.085 3.029 1.038.645 1.071-2.681.836-5.682-.351-4.485m123.723.379c.325.526 1.252.703 2.059.393 2.067-.793 1.824-1.349-.591-1.349-1.132 0-1.793.43-1.468.956m168.916.794c.288.963 1.665 6.7 3.061 12.75 3.317 14.382 3.644 15.5 4.539 15.5.416 0-.307-4.837-1.606-10.75-1.298-5.913-2.647-12.427-2.996-14.476l-.635-3.726 17.374-.299 17.374-.299-18.817-.225c-17.513-.209-18.781-.104-18.294 1.525m-307.003.066c.278.449.035 3.983-.54 7.854-.943 6.359-.846 7.413 1.011 10.933l2.055 3.897.057-4c.072-4.927.974-8.5 2.148-8.5.485 0 .851 1.688.813 3.75-.057 3.008-.241 3.354-.93 1.75-.609-1.418-.88-.204-.93 4.168-.098 8.589 1.25 11.439 2.047 4.332l.618-5.5-.206 6.5c-.114 3.575-.392 7.119-.618 7.875-.226.756.152 1.581.839 1.833.869.319 1.25-.768 1.25-3.566 0-2.213.45-4.302 1-4.642.55-.34 1 .282 1 1.382 0 2.888 1.667 3.49 2.373.857 1.511-5.638.645-10.512-2.77-15.587-1.869-2.776-4.18-7.097-5.136-9.6-.956-2.504-2.379-4.552-3.162-4.552-.783 0-1.196.367-.919.816m395.537 3.887c-1.953 5.136 5.848 31.297 9.332 31.297.527 0 .638-.788.245-1.75-4.112-10.082-5.849-16.726-6.271-24-.495-8.515-1.522-10.239-3.306-5.547m-389.549 1.651c1.854 4.435 5.635 9.97 6.334 9.271.648-.647-4.643-10.326-6.475-11.847-1.171-.971-1.145-.503.141 2.576m382.922-.604c.291.963 1.468 4.326 2.617 7.475 2.242 6.151 2.751 13.247 1.025 14.313-.584.361-1.472 1.738-1.975 3.059-.502 1.322-1.583 2.403-2.401 2.403-1.222 0-1.381 1.13-.895 6.342.727 7.779-.742 12.702-4.81 16.125l-3.01 2.533h17.822l1.781-12.294 1.782-12.294-3.14-9.144c-1.727-5.029-3.241-11.643-3.366-14.698-.219-5.391-.31-5.553-3.093-5.562-2.267-.006-2.756.358-2.337 1.742M463 255.317c0 5.049 1.976 14.683 3.012 14.683.367 0 1.227-3.129 1.91-6.953 1.203-6.729.848-11.047-.908-11.047-.468 0-1.562-.273-2.432-.607-1.299-.498-1.582.203-1.582 3.924m-148.046-1.231c-.614 1.147-.928 2.274-.697 2.504.23.23.932-.708 1.559-2.086 1.378-3.024.707-3.35-.862-.418m124.047-.836c0 .688 1.291 3.978 2.868 7.311l2.868 6.062-9.119 2.815c-5.015 1.548-8.583 3.012-7.929 3.252.653.239 4.839-.718 9.301-2.127 4.462-1.41 8.963-2.563 10.003-2.563 1.039 0 2.167-.45 2.507-1 .34-.55-.242-1-1.293-1-1.392 0-2.787-1.901-5.137-7-3.196-6.933-4.071-8.169-4.069-5.75m-325.779 5.479c1.231 3.379 2.425 5.958 2.652 5.73.519-.519-2.827-9.62-4.013-10.917-.482-.527.13 1.807 1.361 5.187m299.942 3.521c.256 8.78.472 9.75 2.167 9.75 1.416 0 1.694-.434 1.122-1.75-.418-.962-.962-4.9-1.208-8.75-.712-11.128-2.411-10.516-2.081.75m83.416.75c.321 5.225.757 10.063.97 10.75.569 1.837-.288 1.552-4.117-1.369-6.74-5.141-3.599 3.11 3.748 9.842 4.764 4.367 7.833 12.055 7.767 19.462l-.051 5.815-2.199-5.5c-2.542-6.36-5.684-12.348-6.205-11.826-.198.197 1.173 3.502 3.045 7.343 1.872 3.84 3.672 8.333 4 9.983l.595 3-2.584-3c-2.922-3.393-6.871-14.912-6.025-17.575.501-1.578-1.084-3.699-2.045-2.737-1.619 1.619 4.456 17.751 8.946 23.756 2.617 3.5 3.936 14.015 1.575 12.556-1.404-.868-1.246.668.5 4.846 1.948 4.662 1.858 5.963-.156 2.244-2.09-3.86-3.488-8.797-2.28-8.05 1.23.76 1.182-.535-.162-4.391-1.254-3.597-3.175-4.294-2.478-.899 2.071 10.093 3.125 13.249 5.279 15.808l2.475 2.942H497.051l.128-14.014c.07-7.707-.154-14.295-.498-14.638-1.212-1.212-2.849 5.202-2.335 9.152.286 2.2.808 6.475 1.16 9.5l.641 5.5-3.479-8.355c-3.749-9.006-5.668-11.908-5.668-8.573 0 1.95 2.976 13.063 4.533 16.928.758 1.881.692 1.904-1.113.378-5.627-4.752-8.258-4.238-4.066.795 1.871 2.246 2.934 6.115 5.176 18.827 1.551 8.8 3.158 16.394 3.57 16.875.412.481 4.957.559 10.099.173l9.35-.701 2.75-15.173c3.227-17.807 3.15-16.428.951-16.917-1.115-.248.608-1.484 4.75-3.407 6.578-3.054 14-9.899 14-12.912 0-.967-.473-1.28-1.25-.827-5.339 3.115-11.053 7.444-15.5 11.744-5.053 4.886-5.25 4.978-5.25 2.442 0-1.917.926-3.206 3.403-4.737 5.618-3.472 15.686-16.06 12.845-16.06-1.106 0-5.173 2.787-8.617 5.903l-2.869 2.597.724-2.5c.73-2.52 1.871-4.532 6.597-11.624 2.72-4.082 5.255-10.376 4.179-10.376-.348 0-1.68.984-2.961 2.187l-2.327 2.186 1.151-3.302c.686-1.968 2.524-4.111 4.55-5.306 1.869-1.103 4.057-3.279 4.862-4.836 1.924-3.721 1.847-4.205-.47-2.965-3.568 1.91-3.31-2.072.613-9.46 2.023-3.81 3.847-6.424 4.052-5.809.451 1.353-1.779 6.536-4.864 11.305-2.164 3.346-2.171 3.42-.158 1.679 2.552-2.208 5.889-9.722 6.742-15.179l.625-4-1.788 2.355c-.984 1.295-3.637 5.699-5.895 9.788l-4.106 7.434-.563-5.453c-.72-6.976-2.649-11.077-3.812-8.102-1.123 2.875-1.077 15.421.072 19.424.796 2.778-1.954 15.068-3.369 15.053-.064-.001-.129-3.713-.145-8.25-.032-9.227-1.19-16.465-2.421-15.129-1.514 1.643-2.883 24.771-1.793 30.284.864 4.368.731 5.796-.869 9.347l-1.888 4.191-.649-5.286c-.63-5.14-1.349-6.992-2.331-6.01-1.16 1.161-1.731 17.811-.711 20.737.891 2.555.826 3.117-.361 3.117-.964 0-1.453-1.087-1.463-3.25-.024-4.987-1.549-6.589-2.458-2.581-.742 3.272-.769 3.287-1.542.831-1.694-5.389-1.09-11.993 1.401-15.317 4.38-5.844 8.846-16.683 6.874-16.683-1.373 0-3.248 3.868-2.642 5.448.535 1.392-3.631 9.831-5.38 10.9-.406.248-.867-1.788-1.025-4.525-.249-4.33.107-5.424 2.75-8.434 3.084-3.513 4.45-8.806 1.678-6.506-1.12.929-1.453-.322-1.9-7.128-.297-4.54-1.141-9.605-1.875-11.255-1.265-2.842-1.362-2.526-1.851 6l-.515 9-2.168-5.568c-1.806-4.639-2.079-6.892-1.634-13.5.557-8.276-.556-14.57-3.179-17.963-1.383-1.79-1.468-1.105-.939 7.531m-324.051-4.772c-1.061 1.799-3.819 5.747-6.128 8.772-6.062 7.94-6.485 10-2.05 10 4.47 0 6.649-.854 6.649-2.607 0-1.117 2.527-1.397 12.75-1.411l12.75-.018-5.493-3.027c-3.02-1.665-6.645-4.132-8.054-5.482-1.409-1.35-3.311-2.455-4.226-2.455s-1.461-.562-1.213-1.25c.248-.687-.339-2.273-1.303-3.522l-1.753-2.273-1.929 3.273m11.457-.196-3.486 2.864 3.5 2.992c8.579 7.332 12.283 8.567 26.871 8.957 9.558.255 13.178.043 12.691-.744-.374-.606-2.341-1.106-4.371-1.113-8.894-.028-19.77-4.643-27.097-11.497l-4.623-4.324-3.485 2.865m80.994 2.492c-.696.838-1.012 1.777-.704 2.086.309.309 1.064-.377 1.678-1.524 1.31-2.448.824-2.728-.974-.562m232.851 5.226c.551 8.716 2.021 12.754 2.095 5.75.062-5.918-.915-12.5-1.854-12.5-.367 0-.475 3.038-.241 6.75M311.5 264c-.38 1.729-.482 3.351-.227 3.606.255.255.751-.974 1.102-2.731.834-4.168.026-4.976-.875-.875m78-2c-.34.55.084 1 .941 1s1.559-.45 1.559-1-.423-1-.941-1-1.219.45-1.559 1m-335.617 1.75c.927 1.703 5.836 6.51 9.367 9.175 3.952 2.981 1.607-1.43-3.247-6.109-5.117-4.932-7.894-6.323-6.12-3.066m182.444-.47c-.293.474-.234 2.855.131 5.291.606 4.04.914 4.429 3.496 4.429 3.239 0 4.046-1.418 4.046-7.113 0-3.907-.039-3.947-3.57-3.709-1.964.132-3.81.628-4.103 1.102m25.391 3.796c-5.885 6.332-5.948 6.091 1.532 5.914 9.181-.217 9.75-.13 9.75 1.486 0 1.235-2.83 1.522-17.25 1.75l-17.25.274.267 5c.147 2.75.483 5.972.747 7.161l.479 2.161 4.254-2.061c2.339-1.133 10.778-3.636 18.753-5.561 7.975-1.926 14.662-3.632 14.859-3.793.459-.373-10.181-17.361-10.891-17.387-.292-.011-2.654 2.264-5.25 5.056m206.341.551c-1.283 5.731.551 13.373 3.209 13.373.531 0 .75 1.125.487 2.5s-.382 2.5-.266 2.5c1.138 0 6.511-2.348 6.511-2.845 0-2.027-6.324-19.179-7.4-20.072-1.004-.833-1.561.163-2.541 4.544m-250.872-1.377c.268 2.783.744 3.299 3.313 3.588 1.65.187 3.563.804 4.25 1.373.969.801 1.25-.006 1.25-3.589V263h-4.563c-4.546 0-4.563.012-4.25 3.25m29.443-.103c-1.51.877-1.606 1.254-.5 1.955 2.04 1.292 2.583 1.102 3.16-1.102.588-2.251.046-2.425-2.66-.853m-130.551 1.436c.048 1.165.285 1.402.604.605.289-.722.253-1.585-.079-1.917-.332-.332-.568.258-.525 1.312m241.182 4.361c.498 5.495.377 5.975-1.611 6.363-1.182.232 19.986.482 47.041.557 33.887.094 49.396-.196 49.85-.93.464-.751-13.305-.973-46.542-.75-27.28.183-45.68-.042-43.599-.533 3.528-.833 3.6-.948 3.6-5.75V266h-9.278l.539 5.944m-112.585-1.542c-.674 1.757.131 2.598 2.491 2.598 2.113 0 2.356-1.077.633-2.8-1.573-1.573-2.465-1.516-3.124.202m65.482.598c0 1.375.227 1.938.504 1.25.278-.687.278-1.812 0-2.5-.277-.687-.504-.125-.504 1.25m-193 1c0 1.375.227 1.938.504 1.25.278-.687.278-1.812 0-2.5-.277-.687-.504-.125-.504 1.25m55.393 3.082c.625 1.012 98.237.32 99.366-.704.229-.208-22.185-.378-49.809-.378-35.769 0-50.034.311-49.557 1.082m42.49 3.418c-.396 1.1-2.426 12.702-4.511 25.783l-3.79 23.783 2.058 6.217c4.47 13.5 4.629 13.717 10.09 13.717 2.674 0 6.195.267 7.823.592 5.252 1.051 5.906-.688 6.677-17.761.905-20.037 2.335-32.57 4.126-36.16 1.147-2.3 1.248-4.267.486-9.534-.528-3.65-.969-7.197-.98-7.882-.038-2.393-21.098-1.201-21.979 1.245m-36.344.75a83.618 83.618 0 0 1-1.233 4.5c-.66 2.131-.427 2.25 4.419 2.25 6.066 0 5.882-1.445 2.117 16.661-4.249 20.434-4.122 21.339 3 21.339 5.042 0 17.674-41.926 13.8-45.8-.776-.776-4.796-1.2-11.383-1.2-9.736 0-10.207.099-10.72 2.25m24.032 2.036c.309 2.747-.285 6.864-1.654 11.462l-2.137 7.176 2.025 7.788c3.287 12.641 4.786 16.917 5.357 15.288.289-.825 1.944-10.5 3.678-21.5s3.392-21.012 3.685-22.25c.508-2.142.247-2.25-5.452-2.25h-5.985l.483 4.286M292 278.619c-3.025.791-6.459 1.923-7.631 2.515-1.173.592-3.486.779-5.142.416-3.604-.792-29.21 5.38-35.379 8.527-3.702 1.889-3.999 2.332-3.509 5.243.295 1.749 1.317 10.267 2.272 18.93.955 8.663 2.03 15.75 2.39 15.75 1.001 0 3.012-14.694 3.011-22-.002-13.995 3.409-18.186 18.69-22.962 5.345-1.671 10.411-3.008 11.258-2.97.847.037-3.528 1.738-9.722 3.78-20.064 6.616-21.689 11.126-16.625 46.152 2.407 16.648 2.939 18.144 6.178 17.371 5.611-1.339 5.566-1.129 4.859-23.047-.643-19.942-.388-22.176 2.671-23.395.099-.039 6.029-.438 13.179-.885 14.673-.918 17.744-1.932 19.952-6.584 2.095-4.416 1.841-18.684-.327-18.369-.344.05-3.1.738-6.125 1.528m103.126 8.89c-1.649 11.091-1.788 10.799 3.624 7.604 2.613-1.543 8.125-4.793 12.25-7.223 10.628-6.26 10.126-7.324-3.624-7.672l-11.123-.281-1.127 7.572M432 280.908l9.5.523-10.5.534-10.5.535-.313 3.25c-.384 3.975.817 4.111 5.407.611 1.903-1.452 3.666-2.434 3.918-2.182.252.251-1.673 1.961-4.277 3.798l-4.735 3.34 3.5 1.181c4.658 1.571 5.029 5.145.49 4.72-2.997-.28-3.008-.262-2.643 4.326l.366 4.607 7.644-.632c17.086-1.411 21.976-6.81 19.533-21.57l-.587-3.551-13.152-.006c-12.171-.006-12.443.033-3.651.516M506.086 290c-.038 6.481.253 9.023.914 8 1.185-1.833 1.185-12.743 0-15.5-.563-1.311-.878 1.274-.914 7.5m-41.286-5c-1.275 4.914-2.952 18.182-2.372 18.762.929.928 10.963.42 13.924-.706 3.924-1.491 5.124-4.87 3.81-10.724l-1.084-4.832.33 4.681c.347 4.911-.646 6.819-3.549 6.819-2.389 0-3.236-1.652-3.841-7.5-.486-4.691-.684-4.989-3.208-4.82-2.065.138-2.767-.326-3.026-2-.318-2.066-.37-2.049-.984.32m-401.5 1.25c.284 1.238 1.535 7.988 2.78 15L68.344 314l7.328.167c4.03.091 8.087.204 9.016.25 1.384.068 2.092-2.158 3.947-12.417a2759.626 2759.626 0 0 1 2.788-15.25l.527-2.75H62.783l.517 2.25m344.2 4.833c-5.5 3.229-10.45 6.044-11 6.257-.55.212.046 1.525 1.325 2.917 3.047 3.318 1.303 7.1-2.994 6.491-3.709-.525-4.643 3.561-1.175 5.141 3.334 1.519 3.039 4.111-.469 4.111h-2.812l-2.775 17.75c-1.526 9.762-3.017 18.988-3.312 20.5-.447 2.286-.189 2.75 1.526 2.75 1.73 0 2.49-1.421 4.682-8.75 1.44-4.812 4.619-15.05 7.067-22.75 2.447-7.7 4.446-15.035 4.443-16.3-.016-5.975 10.828-16.43 14.823-14.291 1.904 1.018 3.171.562 3.171-1.143 0-.495-1.012-.622-2.25-.282-2.074.571-2.113.509-.5-.792 1.697-1.37 2.545-7.805 1-7.586-.413.059-5.25 2.748-10.75 5.977M521.068 286c-.057.825-.515 5.407-1.017 10.183-.895 8.504-.164 16.16 1.203 12.597 1.211-3.156 1.84-18.305.883-21.28-.531-1.65-1.012-2.325-1.069-1.5m-47.401.667c-1.392 1.391-.274 10.333 1.291 10.333.399 0 .415-2.041.037-4.536-.547-3.602-.36-4.728.908-5.47 1.448-.846 1.449-.936.014-.964-.871-.016-1.884.27-2.25.637m58.225 1.222c-1.316 1.066-2.042 2.29-1.614 2.719.428.43 1.753-.194 2.944-1.386 2.813-2.813 1.777-3.852-1.33-1.333M421 294.032c0 1.256 4.146 2.943 5.401 2.198 1.072-.636-2.214-3.23-4.092-3.23-.72 0-1.309.465-1.309 1.032m-183.886 5.647c-1.15 5.143-3.818 44.954-3.063 45.699.247.244 2.035.74 3.973 1.102 5.976 1.116 6.526-3.514 3.511-29.58-1.345-11.629-2.648-21.346-2.894-21.593-.247-.246-.934 1.721-1.527 4.372m156.368.786c-.265.844-.684 2.187-.931 2.984-.648 2.091 3.14 3.002 4.952 1.191 1.967-1.968 1.927-2.128-1.021-4.06-2.235-1.464-2.572-1.477-3-.115M288.5 302.673c-13.441.661-18.5 1.456-18.5 2.907 0 1.174 3.092 1.42 17.833 1.42 18.938 0 19.229-.048 18.442-3.058-.538-2.056-1.04-2.092-17.775-1.269m101.5.386c0 .582.45.781 1 .441s1-.816 1-1.059-.45-.441-1-.441-1 .477-1 1.059m-194.529 7.431c-3.213 8.809-3.258 9.469-1.007 14.806l1.601 3.795 3.968-2.229c4.725-2.656 4.664-1.893 1.135-14.301l-2.827-9.94-2.87 7.869M406 304.27c-2.472 1.275-3.434 3.693-1.5 3.77 2.947.117 10.544-2.411 10.219-3.401-.54-1.65-5.804-1.873-8.719-.369m103.114 3.045c-3 4.855-2.628 5.906.475 1.339 1.424-2.095 2.375-4.023 2.114-4.284-.261-.262-1.426 1.064-2.589 2.945m-121.887.086c-.927 2.034-.808 2.475.782 2.891 2.354.616 2.991-.014 2.991-2.959 0-3.043-2.375-3.001-3.773.068m39.672-.681c-3.218.342-3.552.646-3.131 2.848l.471 2.465 16.631-.6c19.102-.688 19.13-.693 19.13-3.402 0-1.957-.536-2.025-14.75-1.863-8.113.093-16.371.341-18.351.552m-303.086 1.963c.721.289 1.584.253 1.916-.079.332-.332-.258-.568-1.312-.525-1.165.048-1.402.285-.604.604m261.68 3.328c-.851 1.378-.547 1.703 2.007 2.144 1.258.217 2-.207 2-1.141 0-1.806-3.04-2.567-4.007-1.003M391 314c0 .55.927 1 2.059 1 1.132 0 1.781-.45 1.441-1-.34-.55-1.266-1-2.059-1-.793 0-1.441.45-1.441 1m-6.52 2.25c-.964 2.638-7.082 39.814-6.627 40.27.264.264 1.46.48 2.657.48 2.051 0 2.365-1.131 5.422-19.549 1.785-10.751 2.994-20.201 2.688-21-.683-1.778-3.513-1.916-4.14-.201m138.903 2.242c-2.264 1.899-4.862 4.59-5.773 5.98-2.808 4.286.593 3.091 5.44-1.911 7.473-7.711 7.679-10.23.333-4.069m-34.341.576c-.071 2.641 2.806 11.349 4.443 13.449 1.471 1.887 1.512 1.837.859-1.017-.981-4.29-5.251-14.302-5.302-12.432m-242.186 9.753c-1.605 8.715-.932 26.212 1.095 28.455 1.48 1.638 6.285-4.245 5.779-7.077-.266-1.484-1.456-8.549-2.646-15.699-1.189-7.15-2.26-13.346-2.38-13.769-.119-.422-.951 3.218-1.848 8.09m178.232-2.321c.042 4.734 3.493 32.414 4.118 33.039.31.31 1.827-.524 3.372-1.853l2.809-2.416-4.301-14.385c-4.8-16.05-6.04-19.024-5.998-14.385m65.585 11.25c-.576.973 4.606 28.894 5.532 29.802.388.381 4.48.378 9.092-.007l8.386-.698 2.251-12.674c1.237-6.97 2.482-13.685 2.766-14.923l.517-2.25h-14.05c-7.727 0-14.249.337-14.494.75M233 347.893c0 1.156 2.52 2.107 5.582 2.107 3.47 0 2.983-1.637-.707-2.375-4.153-.831-4.875-.791-4.875.268m-17.5 1.929c.55.55 5.05 1.222 10 1.495 4.95.272 10.238.815 11.75 1.205 1.621.419 2.75.306 2.75-.275 0-1.273-5.266-2.19-16.5-2.875-5.996-.366-8.666-.215-8 .45m40.75.84c-.687.278-1.25 1.142-1.25 1.921 0 2.329 6.447 1.299 7.399-1.182.543-1.412-3.327-1.877-6.149-.739m1.25 4.22c-3.839.791-9.5 3.871-9.5 5.168 0 .549 2.134-.137 4.742-1.526 2.608-1.388 5.507-2.524 6.441-2.524.934 0 1.977-.45 2.317-1 .659-1.066.605-1.068-4-.118m174.744 4.26c-3.258 2.063-3.958 3.299-2.411 4.255.459.283.624 1.946.367 3.694l-.467 3.18 3.074-1.816c1.69-.998 3.014-2.072 2.942-2.385-.071-.314.226-2.077.662-3.919 1.068-4.519-.263-5.48-4.167-3.009m-54.812 1.442c.42 1.675.283 2.358-.392 1.941-.572-.354-1.04-.08-1.04.607 0 .709-.685.41-1.582-.691-1.35-1.657-1.501-1.685-1.031-.191.303.962.152 1.75-.335 1.75s-1.062-.53-1.278-1.177c-.606-1.819-2.774.038-2.774 2.376 0 1.929.409 2.039 5.605 1.502 6.608-.682 6.322-.476 7.069-5.077.556-3.426.438-3.624-2.152-3.624-2.446 0-2.669.276-2.09 2.584m6.175-1.002c-1.087 2.832-.685 3.53 1.393 2.418 2.281-1.221 2.702-4 .607-4-.766 0-1.666.712-2 1.582M242 362.163c-4.796 2.769-5.789 3.837-3.568 3.837 2.194 0 8.568-3.78 8.568-5.082 0-1.307-1.02-1.053-5 1.245m121.75 2.055c-4.024 1.388-3.549 3.782.75 3.782 2.798 0 3.5-.389 3.5-1.941 0-2.573-.943-2.981-4.25-1.841M384.5 364c-.34.55-.141 1 .441 1s1.059-.45 1.059-1-.198-1-.441-1-.719.45-1.059 1m39.556 3.965c-2.275 1.407.574 5.303 2.949 4.032 2.001-1.071 1.765-3.487-.423-4.327-.695-.267-1.832-.134-2.526.295m-4.806 3.573c-4.398 3.08-2.239 5.773 2.512 3.135 1.924-1.068 2.073-1.516 1-2.984-1.159-1.585-1.448-1.597-3.512-.151" fill-rule="evenodd"/>
</svg>